<svg width="24" height="28" viewBox="0 0 24 28" fill="none" xmlns="http://www.w3.org/2000/svg">
<path d="M19.5013 5.29791L17.9419 16.5337L17.6301 16.6724L15.7594 17.5971C14.8236 18.152 13.8433 19.1692 13.2197 20.2327L19.5013 5.29791Z" fill="#70993F"/>
<path d="M7.24973 14.6853L9.52164 17.8294C10.7688 19.3553 11.3924 21.2973 11.2585 23.3317L11.1255 25.0888V27.4006C10.1897 26.7995 9.34328 26.0597 8.6303 25.1812C7.91733 24.3027 7.33868 23.3317 6.93793 22.2683L0.567383 5.43776L7.24973 14.6853Z" fill="#80AF52"/>
<path d="M2.26064 20.5067C2.88422 20.5067 3.37436 21.0153 3.37436 21.6627C3.37436 22.31 2.88422 22.8186 2.26064 22.8186C1.63706 22.8186 1.14648 22.31 1.14648 21.6627C1.14648 21.0153 1.63706 20.5067 2.26064 20.5067Z" fill="#D7DEED"/>
<path d="M2.52804 2.01079C2.97371 2.01079 3.37489 2.38069 3.37489 2.88931C3.37489 3.39792 3.01818 3.76782 2.52804 3.76782C2.03834 3.76782 1.68164 3.39792 1.68164 2.88931C1.68164 2.38069 2.03834 2.01079 2.52804 2.01079Z" fill="#D7DEED"/>
<path d="M22.3081 2.56922C22.9316 2.56922 23.4218 3.07784 23.4218 3.72516C23.4218 4.37249 22.8876 4.8811 22.3081 4.8811C21.729 4.8811 21.1943 4.37249 21.1943 3.72516C21.1943 3.07784 21.6845 2.56922 22.3081 2.56922Z" fill="#D7DEED"/>
<path d="M21.1938 19.9061C22.1287 19.9061 22.8871 20.6926 22.8871 21.6631C22.8871 22.6332 22.1287 23.4202 21.1938 23.4202C20.2589 23.4202 19.501 22.6332 19.501 21.6631C19.501 20.6926 20.2589 19.9061 21.1938 19.9061Z" fill="#D7DEED"/>
<path d="M17.1843 2.47783C17.5855 2.61655 17.8083 2.98645 17.8083 3.40259C17.8083 3.49506 17.8083 3.63377 17.7638 3.72625L16.7835 6.54674C16.6056 7.05536 16.071 7.33278 15.5809 7.14783C15.0907 6.96288 14.8234 6.40803 15.0018 5.89942L15.9821 3.12516C16.16 2.57031 16.6946 2.29288 17.1843 2.47783Z" fill="#73665C"/>
<path d="M12.8188 7.7925V11.2603C12.8188 11.9076 12.3291 12.4163 11.7051 12.4163C11.0815 12.4163 10.5918 11.9076 10.5918 11.2603V7.7925C10.5918 7.14517 11.0815 6.63656 11.7051 6.63656C12.0169 6.63656 12.2842 6.77527 12.507 6.96022C12.6854 7.14517 12.8188 7.46883 12.8188 7.7925Z" fill="#73665C"/>
<path d="M8.36417 4.87843V8.34626C8.36417 8.99358 7.87447 9.5022 7.25089 9.5022C6.62688 9.5022 6.13672 8.99358 6.13672 8.34626V4.87843C6.13672 4.23111 6.62688 3.72249 7.25089 3.72249C7.56268 3.72249 7.82954 3.86121 8.05237 4.04616C8.23073 4.27734 8.36417 4.55477 8.36417 4.87843Z" fill="#73665C"/>
<path d="M21.1914 9.73942L21.9788 8.92238L22.7662 9.73942L21.9788 10.5569L21.1914 9.73942Z" fill="black"/>
<path d="M9.55176 2.32924L10.3392 1.51222L11.1265 2.32924L10.3392 3.14673L9.55176 2.32924Z" fill="black"/>
<path d="M5.02246 24.88L5.80986 24.063L6.5977 24.88L5.80986 25.6975L5.02246 24.88Z" fill="black"/>
<path d="M0.117188 15.6183L0.905034 14.8008L1.69243 15.6183L0.905034 16.4358L0.117188 15.6183Z" fill="black"/>
<path d="M11.1263 27.9983C11.0369 27.9983 10.9475 27.9521 10.8585 27.9058C9.83422 27.3047 8.94289 26.5187 8.18587 25.5939C7.42842 24.6692 6.84932 23.6057 6.4041 22.496L0.0335442 5.61927C-0.055853 5.34185 0.0335468 5.06442 0.300417 4.92571C0.52325 4.787 0.835037 4.83323 1.01339 5.06442L9.96765 17.5023C11.3042 19.1669 11.9723 21.2476 11.8388 23.3745L11.705 25.1778C11.6605 25.5015 11.3932 25.7326 11.1263 25.6864C10.8145 25.6402 10.5917 25.3627 10.6357 25.0853L10.7696 23.3283C10.9035 21.4788 10.3239 19.6755 9.16572 18.2421C9.16572 18.2421 9.16573 18.2421 9.12125 18.1959L2.61728 9.17957L7.47333 22.0336C7.87408 23.0509 8.40871 23.9756 9.07676 24.8079C9.74526 25.6402 10.5468 26.3337 11.4381 26.8886C11.705 27.0735 11.7939 27.3972 11.616 27.6746C11.527 27.9058 11.3487 27.9983 11.1263 27.9983Z" fill="black"/>
<path d="M2.2602 21.0614C1.94841 21.0614 1.68068 21.3388 1.68068 21.6625C1.68068 21.9862 1.94841 22.2636 2.2602 22.2636C2.57199 22.2636 2.8393 21.9862 2.8393 21.6625C2.79482 21.3388 2.52707 21.0614 2.2602 21.0614ZM2.2602 23.3733C1.32483 23.3733 0.567383 22.5873 0.567383 21.6163C0.567383 20.6453 1.32483 19.8592 2.2602 19.8592C3.19557 19.8592 3.95259 20.6453 3.95259 21.6163C3.95259 22.5873 3.15109 23.3733 2.2602 23.3733Z" fill="black"/>
<path d="M22.3071 3.17078C21.9953 3.17078 21.728 3.44821 21.728 3.77187C21.728 4.09554 21.9953 4.37296 22.3071 4.37296C22.6189 4.37296 22.8866 4.09554 22.8866 3.77187C22.8417 3.40197 22.5744 3.17078 22.3071 3.17078ZM22.3071 5.48267C21.3717 5.48267 20.6143 4.69663 20.6143 3.72564C20.6143 2.75465 21.3717 1.96861 22.3071 1.96861C23.2424 1.96861 23.9999 2.75465 23.9999 3.72564C23.9999 4.69663 23.1984 5.48267 22.3071 5.48267Z" fill="black"/>
<path d="M2.52751 2.56548C2.39408 2.56548 2.26064 2.70419 2.26064 2.84291C2.26064 2.98162 2.39408 3.12033 2.52751 3.12033C2.66139 3.12033 2.79527 3.02786 2.79527 2.84291C2.79527 2.65795 2.66139 2.56548 2.52751 2.56548ZM2.52751 4.32251C1.77006 4.32251 1.14648 3.67518 1.14648 2.88914C1.14648 2.1031 1.77006 1.45578 2.52751 1.45578C3.28497 1.45578 3.90899 2.1031 3.90899 2.88914C3.90899 3.67518 3.28497 4.32251 2.52751 4.32251Z" fill="black"/>
<path d="M21.1952 20.507C20.5716 20.507 20.0819 21.0156 20.0819 21.663C20.0819 22.3103 20.5716 22.8189 21.1952 22.8189C21.8188 22.8189 22.3089 22.3103 22.3089 21.663C22.3089 21.0156 21.7743 20.507 21.1952 20.507ZM21.1952 23.9749C19.948 23.9749 18.9678 22.9576 18.9678 21.663C18.9678 20.3683 19.948 19.3511 21.1952 19.3511C22.4428 19.3511 23.4226 20.3683 23.4226 21.663C23.4226 22.9114 22.3979 23.9749 21.1952 23.9749Z" fill="black"/>
<path d="M21.7283 27.9983H5.60201C5.29022 27.9983 5.02246 27.7209 5.02246 27.3972C5.02246 27.0735 5.29022 26.7961 5.60201 26.7961H21.7728C22.0846 26.7961 22.3523 27.0735 22.3523 27.3972C22.3074 27.7209 22.0401 27.9983 21.7283 27.9983Z" fill="black"/>
<path d="M11.7046 23.9749C11.3929 23.9749 11.126 23.6974 11.126 23.3738V12.4154C11.126 12.0918 11.3929 11.8144 11.7046 11.8144C12.0164 11.8144 12.2837 12.0918 12.2837 12.4154V23.3738C12.2837 23.6974 12.0164 23.9749 11.7046 23.9749Z" fill="black"/>
<path d="M11.7055 7.19124C11.3937 7.19124 11.1268 7.46867 11.1268 7.79233V11.2602C11.1268 11.5838 11.3937 11.8612 11.7055 11.8612C12.0173 11.8612 12.2846 11.5838 12.2846 11.2602V7.79233C12.2846 7.65362 12.2401 7.51491 12.1067 7.37619C11.9728 7.23748 11.8394 7.19124 11.7055 7.19124ZM11.7055 12.9709C10.7701 12.9709 10.0127 12.1849 10.0127 11.2139V7.74609C10.0127 6.7751 10.7701 5.98906 11.7055 5.98906C12.1512 5.98906 12.5519 6.17401 12.9082 6.49768C13.22 6.82134 13.3988 7.28372 13.3988 7.74609V11.2139C13.3988 12.1849 12.6413 12.9709 11.7055 12.9709Z" fill="black"/>
<path d="M11.7046 7.1897C11.3929 7.1897 11.126 6.91227 11.126 6.58861V4.27673C11.126 3.95306 11.3929 3.67564 11.7046 3.67564C12.0164 3.67564 12.2837 3.95306 12.2837 4.27673V6.58861C12.2837 6.91227 12.0164 7.1897 11.7046 7.1897Z" fill="black"/>
<path d="M16.872 2.98645C16.6941 2.98645 16.5602 3.07893 16.5162 3.26388L15.5359 6.03814C15.4469 6.26932 15.5804 6.50051 15.7587 6.54675C15.8032 6.54675 15.8477 6.59299 15.8921 6.59299C16.0705 6.59299 16.2044 6.50051 16.2484 6.31556L17.2287 3.49507C17.2287 3.44883 17.2732 3.40259 17.2732 3.35635C17.2732 3.1714 17.1838 3.03269 17.0059 2.98645C16.9609 2.98645 16.9169 2.98645 16.872 2.98645ZM15.8921 7.79517C15.7138 7.79517 15.5359 7.74893 15.402 7.70269C14.6001 7.42526 14.1993 6.50051 14.5111 5.71447L15.4914 2.89398C15.7138 2.29289 16.2933 1.87675 16.9169 1.87675C17.0948 1.87675 17.2732 1.92299 17.4066 1.96922C17.9862 2.20041 18.3869 2.8015 18.3869 3.44883C18.3869 3.63378 18.3424 3.81873 18.2979 3.95744L17.3177 6.7317C17.0948 7.33279 16.5162 7.79517 15.8921 7.79517Z" fill="black"/>
<path d="M17.1846 3.02954C17.1406 3.02954 17.0517 3.02954 17.0067 2.9833C16.7399 2.89083 16.5611 2.56716 16.65 2.2435L17.274 0.393996C17.3634 0.11657 17.6752 -0.0683808 17.987 0.0240943C18.2543 0.11657 18.4322 0.440233 18.3433 0.763897L17.7193 2.6134C17.6303 2.89083 17.4075 3.02954 17.1846 3.02954Z" fill="black"/>
<path d="M7.24947 15.2834C6.93768 15.2834 6.66992 15.006 6.66992 14.6824V9.50374C6.66992 9.18008 6.93768 8.90265 7.24947 8.90265C7.56126 8.90265 7.82811 9.18008 7.82811 9.50374V14.7286C7.82811 15.006 7.56126 15.2834 7.24947 15.2834Z" fill="black"/>
<path d="M7.24991 4.32406C6.93812 4.32406 6.67036 4.60148 6.67036 4.92514V8.39297C6.67036 8.71663 6.93812 8.99406 7.24991 8.99406C7.5617 8.99406 7.82856 8.71663 7.82856 8.39297V4.87891C7.82856 4.74019 7.78452 4.60148 7.65064 4.46277C7.51677 4.32406 7.38291 4.32406 7.24991 4.32406ZM7.24991 10.1038C6.3141 10.1038 5.55664 9.31772 5.55664 8.34673V4.87891C5.55664 3.90792 6.3141 3.12188 7.24991 3.12188C7.69514 3.12188 8.0963 3.30683 8.45257 3.63049C8.76436 3.95415 8.94228 4.41653 8.94228 4.87891V8.34673C8.94228 9.31772 8.18528 10.1038 7.24991 10.1038Z" fill="black"/>
<path d="M7.24947 4.32251C6.93768 4.32251 6.66992 4.04508 6.66992 3.72142V1.40954C6.66992 1.08588 6.93768 0.808449 7.24947 0.808449C7.56126 0.808449 7.82811 1.08588 7.82811 1.40954V3.72142C7.82811 4.04508 7.56126 4.32251 7.24947 4.32251Z" fill="black"/>
<path d="M13.9322 17.1344C13.1747 13.4816 14.9565 7.2395 15.0455 6.96207C15.1344 6.63841 15.4466 6.4997 15.7584 6.59217C16.0702 6.68465 16.2041 7.00831 16.1147 7.33197C16.1147 7.37821 14.3329 13.5741 15.0455 16.9032C15.0899 17.2268 14.912 17.5043 14.5998 17.5967C14.288 17.643 14.0211 17.458 13.9322 17.1344Z" fill="black"/>
<path d="M21.729 14.7315L16.8289 20.6037L14.2452 23.7016L11.1709 27.4006V25.0888L12.8642 21.0198C12.9531 20.7424 13.0865 20.465 13.2649 20.1876C13.8885 19.1241 14.8688 18.1069 15.8041 17.552L17.6753 16.6273L21.729 14.7315Z" fill="#70993F"/>
<path d="M12.9966 20.7407C12.7293 20.602 12.5954 20.2784 12.7293 20.0009L19.0109 5.06619C19.1443 4.78876 19.4116 4.65005 19.6785 4.74253C19.9462 4.835 20.1242 5.11243 20.0801 5.38985L18.5207 16.6718C18.4758 16.8568 18.3869 17.0417 18.2085 17.1342L17.8967 17.2729C17.6294 17.4116 17.2731 17.2729 17.1397 16.9955C17.0058 16.7181 17.1397 16.3482 17.4066 16.2095H17.4515L18.3868 9.505L13.7096 20.4633C13.6206 20.7407 13.2639 20.8795 12.9966 20.7407Z" fill="black"/>
<path d="M11.7051 25.224V25.8714L19.5901 16.3926L16.0261 18.1497C14.9573 18.797 13.7991 20.0917 13.3534 21.2938C13.3534 21.2938 13.3984 21.1089 11.7051 25.224ZM11.1264 27.9983C11.0815 27.9983 10.9925 27.9983 10.9476 27.9521C10.7248 27.8596 10.5918 27.6746 10.5918 27.3972V25.0853C10.5918 24.9928 10.5918 24.9466 10.6358 24.8541L12.2842 20.8315C12.8188 19.3981 14.1554 17.8722 15.4474 17.0862C15.4474 17.0862 15.4919 17.0862 15.4919 17.04L21.5058 14.1732C21.7286 14.0808 22.0404 14.127 22.1738 14.3582C22.3526 14.5894 22.3077 14.8668 22.1298 15.098L11.5716 27.8133C11.4822 27.9058 11.3043 27.9983 11.1264 27.9983Z" fill="black"/>
</svg>
