<svg width="24" height="24" viewBox="0 0 24 24" fill="none" xmlns="http://www.w3.org/2000/svg">
<path d="M17.489 1.54149C18.7834 1.54149 19.8265 2.58697 19.8265 3.88337V7.01981C19.8265 7.77256 19.4927 8.44167 18.9501 8.85986C18.4075 8.81804 17.8233 8.98532 17.4057 9.36169C17.239 9.36169 17.1136 9.31988 16.9469 9.31988C16.7381 9.1526 16.4043 8.9435 16.0284 8.90168C15.9451 8.81804 15.8617 8.77622 15.778 8.69259C15.9867 8.35803 16.1122 8.02348 16.1538 7.6471C16.2372 7.14527 16.1538 6.72708 16.0284 6.47616C15.9867 6.3507 15.8617 6.14161 15.778 6.01615L15.7363 5.97433C15.5692 5.76523 15.3187 5.63978 15.1104 5.51432V3.92519C15.1104 3.25608 15.3604 2.67061 15.778 2.25241C16.2372 1.7924 16.8214 1.54149 17.489 1.54149Z" fill="#9E6133"/>
<path d="M19.0745 10.7039C19.0745 10.4113 18.824 10.1604 18.5319 10.1604C18.2398 10.1604 17.9889 10.4113 17.9889 10.7039C17.9889 10.8294 18.031 10.9548 18.156 11.0802C18.3648 11.2893 18.6986 11.2893 18.9074 11.0802C19.0328 10.9966 19.0745 10.8712 19.0745 10.7039ZM18.9491 8.86431C20.0342 8.94793 20.8689 9.86774 20.8689 10.9548C20.8689 12.1255 19.9509 13.0453 18.7824 13.0453C18.156 13.0453 17.6135 12.7526 17.1959 12.3345C16.8621 11.9582 16.6533 11.4983 16.6533 10.9548C16.6954 9.74231 17.7385 8.73888 18.9491 8.86431Z" fill="#E64C42"/>
<path d="M18.7828 13.5453C18.0315 13.5453 17.3218 13.2107 16.8209 12.6671C16.6121 12.458 16.6538 12.1234 16.8626 11.9143C17.0713 11.7052 17.4052 11.7471 17.6139 11.9562C17.9061 12.2907 18.3236 12.4998 18.7828 12.4998C19.6592 12.4998 20.3685 11.7889 20.3685 10.9107C20.3685 10.0325 19.6592 9.32154 18.7412 9.36336C18.6991 9.36336 18.5741 9.36336 18.4903 9.40518C18.407 9.40518 18.2819 9.447 18.2403 9.48882C18.1148 9.53064 18.0315 9.57245 17.8644 9.69791C17.7806 9.73973 17.739 9.78155 17.6973 9.86519C17.6556 9.90701 17.6556 9.90701 17.6139 9.94883C17.4052 10.1579 17.113 10.1997 16.8626 9.99065C16.6538 9.78155 16.6121 9.48882 16.8209 9.2379C16.988 9.0288 17.2385 8.86153 17.4468 8.73607C17.8227 8.48515 18.3236 8.35969 18.7412 8.35969C20.2018 8.31788 21.4124 9.53064 21.4124 10.9525C21.4124 12.3743 20.2018 13.5453 18.7828 13.5453Z" fill="black"/>
<path d="M16.946 9.32422C17.0294 9.40784 17.1127 9.44965 17.1961 9.57507C16.8623 9.95136 16.6535 10.4113 16.6535 10.9548C16.6535 11.4983 16.8623 11.9582 17.1961 12.3345C16.8206 12.7526 16.2363 13.0453 15.6104 13.0453C14.4415 13.0453 13.5234 12.1255 13.5234 10.9548C13.5234 10.913 13.5234 10.8712 13.5234 10.8294C13.5651 10.3695 13.7318 9.95136 13.9823 9.65869C14.7753 8.69707 16.0692 8.61345 16.946 9.32422Z" fill="#80AF52"/>
<path d="M18.6573 8.56713L18.574 8.48349C18.6156 8.44167 18.6156 8.44167 18.6573 8.44167V8.56713ZM18.9078 9.36169C18.8244 9.36169 18.7827 9.36169 18.699 9.36169L18.6573 8.39985V8.31621C18.699 8.31621 18.699 8.31621 18.7827 8.31621C19.1165 7.98166 19.3253 7.52165 19.3253 7.01981V3.88337C19.3253 2.8797 18.4902 2.04332 17.4884 2.04332C16.9879 2.04332 16.5287 2.25241 16.1949 2.58697C15.8611 2.92152 15.6523 3.38153 15.6523 3.88337V5.17976C15.8611 5.30522 16.0278 5.43068 16.1532 5.59796C16.3616 5.80705 16.3199 6.14161 16.1115 6.3507C15.9027 6.5598 15.5685 6.51798 15.3598 6.30889C15.2764 6.22525 15.2347 6.18343 15.1097 6.09979C15.026 6.05797 14.9426 6.01615 14.9009 5.97433C14.7338 5.89069 14.6084 5.72342 14.6084 5.51432V3.92519C14.6084 3.17244 14.9009 2.41969 15.4435 1.87604C15.9861 1.33239 16.6958 1.03965 17.4884 1.03965C19.0749 1.03965 20.3684 2.33605 20.3684 3.92519V7.06163C20.3684 7.93984 19.9929 8.7344 19.2837 9.31988C19.1582 9.31988 19.0332 9.36169 18.9078 9.36169Z" fill="black"/>
<path d="M14.4424 9.94883C14.2336 10.1997 14.1086 10.4925 14.0669 10.827C14.0669 10.8689 14.0669 10.9107 14.0669 10.9107C14.0669 11.7889 14.7762 12.4998 15.653 12.4998C15.9451 12.4998 16.2789 12.4162 16.5294 12.2489C16.3206 11.8725 16.1956 11.4125 16.1956 10.9525C16.1956 10.4925 16.3206 10.0325 16.5294 9.65609C15.8618 9.19608 14.9433 9.32154 14.4424 9.94883ZM15.653 13.5453C14.2336 13.5453 13.0234 12.3743 13.0234 10.9107C13.0234 10.8689 13.0234 10.7852 13.0234 10.7434C13.0651 10.1997 13.2739 9.69791 13.6077 9.2379C14.6512 7.98332 16.4877 7.98332 17.5728 9.19608C17.7395 9.40518 17.7395 9.69791 17.5728 9.90701C17.3224 10.1997 17.197 10.5761 17.197 10.9525C17.197 11.3289 17.3224 11.7052 17.5728 11.998C17.7395 12.2071 17.7395 12.4998 17.5728 12.7089C17.1136 13.2107 16.4043 13.5453 15.653 13.5453Z" fill="black"/>
<path d="M7.05377 0.499484C7.47133 0.499484 7.8468 0.833963 7.8468 1.29387C7.8468 1.75378 7.513 2.08826 7.05377 2.08826C6.59454 2.08826 6.26074 1.75378 6.26074 1.29387C6.26074 0.833963 6.59454 0.499484 7.05377 0.499484Z" fill="#D7DEED"/>
<path d="M22.7057 2.59323C23.1233 2.59323 23.4987 2.92771 23.4987 3.38762C23.4987 3.84753 23.1649 4.18201 22.7057 4.18201C22.2469 4.18201 21.9131 3.80572 21.9131 3.34581C21.9131 2.8859 22.2469 2.59323 22.7057 2.59323Z" fill="#D7DEED"/>
<path d="M20.3688 19.3213H0.542969V23.5023H22.4561V19.3213H20.3688Z" fill="#73665C"/>
<path d="M18.7831 13.0479H0.542969V17.2289H22.4561V13.0479H18.7831Z" fill="#73665C"/>
<path d="M13.0646 8.85989C13.5239 8.85989 13.941 9.19437 14.0664 9.61247C13.7743 9.94694 13.6072 10.365 13.6072 10.7831C13.4401 10.8668 13.2734 10.9086 13.0646 10.9086H10.4351C10.143 10.9086 9.8925 10.7831 9.68372 10.6159C9.47494 10.4487 9.3916 10.156 9.3916 9.90513C9.3916 9.3198 9.85084 8.85989 10.4351 8.85989H11.4786H13.0646Z" fill="#513B2E"/>
<path d="M10.4348 10.9548C11.019 10.9548 11.4782 11.4147 11.4782 12C11.4782 12.2927 11.3528 12.5436 11.1861 12.7526C10.9773 12.9617 10.7269 13.0453 10.4348 13.0453H7.80519C7.22094 13.0453 6.76172 12.5854 6.76172 12C6.76172 11.7074 6.88673 11.4565 7.05384 11.2475C7.22094 11.0384 7.51307 10.9548 7.80519 10.9548H10.4348Z" fill="#9E6133"/>
<path d="M6.26079 5.72824H7.30428C7.30428 6.31357 7.05383 6.81529 6.67794 7.19158C6.30247 7.56787 5.75988 7.81873 5.2173 7.81873H4.17383C4.17383 7.23339 4.42428 6.73167 4.79975 6.35538C5.17564 5.93728 5.67654 5.72824 6.26079 5.72824Z" fill="#EABF6A"/>
<path d="M4.1744 10.9515H3.13091C2.54666 10.9515 2.04576 10.7007 1.67029 10.3244C1.2944 9.9481 1.04395 9.40458 1.04395 8.86105H2.08743C2.67168 8.86105 3.17258 9.11191 3.54806 9.4882C3.92394 9.82267 4.1744 10.3662 4.1744 10.9515Z" fill="#EABF6A"/>
<path d="M6.26079 8.86105H7.30428C7.30428 9.44639 7.05383 9.9481 6.67794 10.3244C6.30247 10.7007 5.75988 10.9515 5.2173 10.9515H4.17383C4.17383 10.3662 4.42428 9.86448 4.79975 9.4882C5.17564 9.0701 5.67654 8.86105 6.26079 8.86105Z" fill="#FCD884"/>
<path d="M4.1744 7.81873H3.13091C2.54666 7.81873 2.04576 7.56787 1.67029 7.19158C1.2944 6.81529 1.04395 6.27176 1.04395 5.72824H2.08743C2.67168 5.72824 3.17258 5.97909 3.54806 6.35538C3.92394 6.68986 4.1744 7.23339 4.1744 7.81873Z" fill="#FCD884"/>
<path d="M20.9541 7.59517L21.6918 6.85596L22.43 7.59517L21.6918 8.33435L20.9541 7.59517Z" fill="black"/>
<path d="M19.8262 20.8633H20.8697V21.9086H19.8262V20.8633Z" fill="black"/>
<path d="M19.8262 14.5938H20.8697V15.639H19.8262V14.5938Z" fill="black"/>
<path d="M19.0748 10.6997C19.0748 10.8251 19.0332 10.9506 18.9077 11.076C18.6989 11.2851 18.3651 11.2851 18.1564 11.076C18.073 10.9924 17.9893 10.8251 17.9893 10.6997C17.9893 10.407 18.2401 10.1562 18.5323 10.1562C18.8661 10.198 19.0748 10.407 19.0748 10.6997Z" fill="black"/>
<path d="M12.0039 1.72407L12.7421 0.984868L13.4798 1.72407L12.7421 2.46326L12.0039 1.72407Z" fill="black"/>
<path d="M8.97363 4.35729L9.71138 3.61811L10.4491 4.35729L9.71138 5.09607L8.97363 4.35729Z" fill="black"/>
<path d="M2.08691 20.8633H3.13039V21.9086H2.08691V20.8633Z" fill="black"/>
<path d="M2.08691 14.5938H3.13039V15.639H2.08691V14.5938Z" fill="black"/>
<path d="M1.04688 2.27917L1.78462 1.53998L2.52236 2.27917L1.78462 3.01794L1.04688 2.27917Z" fill="black"/>
<path d="M22.4557 23.9984H0.54258C0.250454 23.9984 0 23.7475 0 23.4548V19.2728C0 18.9801 0.250454 18.7292 0.54258 18.7292H2.62955C2.92167 18.7292 3.17213 18.9801 3.17213 19.2728C3.17213 19.5656 2.92167 19.8165 2.62955 19.8165H1.04349V22.9529H21.9132V19.8165H20.3267C20.0346 19.8165 19.7841 19.5656 19.7841 19.2728C19.7841 18.9801 20.0346 18.7292 20.3267 18.7292H22.4137C22.7058 18.7292 22.9562 18.9801 22.9562 19.2728V23.4548C22.9562 23.7475 22.7058 23.9984 22.4557 23.9984Z" fill="black"/>
<path d="M22.4551 17.7289H20.3677C20.0756 17.7289 19.8251 17.478 19.8251 17.1852C19.8251 16.8925 20.0756 16.6416 20.3677 16.6416H21.9125V13.547H10.4342C10.1421 13.547 9.8916 13.296 9.8916 13.0033C9.8916 12.7106 10.1421 12.4597 10.4342 12.4597H22.4551C22.7472 12.4597 22.9973 12.7106 22.9973 13.0033V17.1852C22.9556 17.478 22.7051 17.7289 22.4551 17.7289Z" fill="black"/>
<path d="M2.62955 17.7289H0.54258C0.250454 17.7289 0 17.478 0 17.1852V13.0033C0 12.7106 0.250454 12.4597 0.54258 12.4597H7.84696C8.13909 12.4597 8.38955 12.7106 8.38955 13.0033C8.38955 13.296 8.09742 13.547 7.84696 13.547H1.04349V16.6834H2.62955C2.92167 16.6834 3.17213 16.9343 3.17213 17.2271C3.13045 17.478 2.88 17.7289 2.62955 17.7289Z" fill="black"/>
<path d="M3.13039 18.7774H19.8257V17.7321H3.13039V18.7774ZM20.3683 19.8226H2.62949C2.33736 19.8226 2.08691 19.5718 2.08691 19.2791V17.1886C2.08691 16.8959 2.33736 16.6451 2.62949 16.6451H20.3683C20.6609 16.6451 20.9113 16.8959 20.9113 17.1886V19.2791C20.8692 19.5718 20.6188 19.8226 20.3683 19.8226Z" fill="black"/>
<path d="M4.17442 13.5453C3.88229 13.5453 3.63184 13.2944 3.63184 13.0016V2.54681C3.63184 2.25408 3.88229 2.00316 4.17442 2.00316C4.46655 2.00316 4.717 2.25408 4.717 2.54681V13.0016C4.717 13.2944 4.46655 13.5453 4.17442 13.5453Z" fill="black"/>
<path d="M4.80034 10.4102H5.2179C5.63504 10.4102 6.01093 10.243 6.34473 9.95029C6.51184 9.78305 6.63686 9.574 6.72062 9.36495H6.30306C5.8855 9.36495 5.51002 9.53219 5.17622 9.82486C4.96744 9.9921 4.84243 10.2012 4.80034 10.4102ZM5.2179 11.4554H4.17442C3.88229 11.4554 3.63184 11.2046 3.63184 10.9119C3.63184 10.2012 3.92396 9.574 4.38319 9.07229C4.8841 8.57057 5.5517 8.31971 6.2193 8.31971H7.30487C7.59699 8.31971 7.84744 8.57057 7.84744 8.86324C7.84744 9.574 7.55532 10.2012 7.09609 10.7029C6.55351 11.1628 5.92717 11.4554 5.2179 11.4554Z" fill="black"/>
<path d="M1.67022 9.36495C1.75356 9.574 1.87858 9.78305 2.04569 9.95029C2.33781 10.243 2.75496 10.4102 3.17252 10.4102H3.59007C3.50631 10.2012 3.38129 9.9921 3.21419 9.82486C2.92206 9.53219 2.50492 9.36495 2.08736 9.36495H1.67022ZM4.17433 11.4554H3.13084C2.42116 11.4554 1.79523 11.1628 1.29433 10.7029C0.79342 10.2012 0.542969 9.53219 0.542969 8.86324C0.542969 8.57057 0.793422 8.31971 1.08555 8.31971H2.12903C2.83872 8.31971 3.46465 8.61238 3.96555 9.07229C4.46646 9.574 4.71691 10.243 4.71691 10.9119C4.71691 11.2046 4.46646 11.4554 4.17433 11.4554Z" fill="black"/>
<path d="M4.80034 7.27348H5.2179C5.63504 7.27348 6.01093 7.10624 6.34473 6.81357C6.51184 6.64633 6.63686 6.43728 6.72062 6.22824H6.30306C5.8855 6.22824 5.51002 6.39547 5.17622 6.68814C4.96744 6.85538 4.84243 7.06443 4.80034 7.27348ZM5.2179 8.31873H4.17442C3.88229 8.31873 3.63184 8.06787 3.63184 7.7752C3.63184 7.06443 3.92396 6.43728 4.38319 5.93557C4.8841 5.43385 5.5517 5.18299 6.2193 5.18299H7.30487C7.59699 5.18299 7.84744 5.43385 7.84744 5.72652C7.84744 6.43728 7.55532 7.06443 7.09609 7.56615C6.55351 8.02606 5.92717 8.31873 5.2179 8.31873Z" fill="black"/>
<path d="M1.67022 6.22824C1.75356 6.43728 1.87858 6.64633 2.04569 6.81357C2.33781 7.10624 2.71328 7.27348 3.13084 7.27348H3.54799C3.46464 7.06443 3.33921 6.85538 3.17252 6.68814C2.88039 6.39547 2.46283 6.22824 2.04569 6.22824H1.67022ZM4.17433 8.31873H3.13084C2.42116 8.31873 1.79523 8.02606 1.29433 7.56615C0.79342 7.06443 0.542969 6.39547 0.542969 5.72652C0.542969 5.43385 0.793422 5.18299 1.08555 5.18299H2.12903C2.83872 5.18299 3.46465 5.47566 3.96555 5.93557C4.46646 6.43728 4.71691 7.10624 4.71691 7.7752C4.71691 8.06787 4.46646 8.31873 4.17433 8.31873Z" fill="black"/>
<path d="M7.84787 11.4548C7.72285 11.4548 7.59743 11.4966 7.47241 11.622C7.38865 11.7057 7.3053 11.8311 7.3053 11.9983C7.3053 12.291 7.55575 12.5419 7.84787 12.5419H10.4774C10.6029 12.5419 10.7279 12.5 10.8529 12.3746C10.9367 12.291 11.02 12.1656 11.02 11.9983C11.02 11.7057 10.7696 11.4548 10.4774 11.4548H7.84787ZM10.4358 13.5453H7.8062C6.92941 13.5453 6.21973 12.8345 6.21973 11.9565C6.21973 11.5384 6.38684 11.1621 6.67896 10.8277C6.9715 10.535 7.38864 10.3677 7.8062 10.3677H10.4358C11.3121 10.3677 12.0218 11.0785 12.0218 11.9147C12.0218 12.3328 11.8547 12.7091 11.5626 13.0436C11.2288 13.378 10.8529 13.5453 10.4358 13.5453Z" fill="black"/>
<path d="M13.0642 11.4554H10.4347C10.0171 11.4554 9.64167 11.2882 9.30746 10.9955C9.01533 10.7029 8.84863 10.2848 8.84863 9.86667C8.84863 8.98867 9.55791 8.2779 10.4347 8.2779H11.4782C11.7703 8.2779 12.0208 8.52876 12.0208 8.82143C12.0208 9.11409 11.7703 9.36495 11.4782 9.36495H10.4347C10.1426 9.36495 9.89212 9.61581 9.89212 9.90848C9.89212 10.0339 9.93379 10.1593 10.0588 10.2848C10.1426 10.3684 10.2676 10.452 10.4347 10.452H13.0642C13.1476 10.452 13.2313 10.4102 13.3147 10.3684C13.5651 10.243 13.899 10.3266 14.024 10.5356C14.1494 10.7865 14.0661 11.121 13.8573 11.2464C13.6068 11.3718 13.3147 11.4554 13.0642 11.4554Z" fill="black"/>
<path d="M16.5715 9.65727C16.3627 9.53184 16.1544 9.40641 15.9456 9.36461C15.8622 9.36461 15.7785 9.3228 15.7368 9.28099C15.6535 9.19737 15.528 9.11375 15.4447 9.03013C15.2359 8.82108 15.2359 8.4866 15.4447 8.27755C15.6534 8.0685 15.9872 8.0685 16.196 8.27755C16.2377 8.31936 16.2794 8.31936 16.2794 8.36117C16.6132 8.44479 16.9053 8.57022 17.1974 8.82108C17.4479 8.98832 17.4896 9.3228 17.3229 9.53184C17.1558 9.7827 16.822 9.86632 16.5715 9.65727Z" fill="black"/>
<path d="M7.30429 6.22888C7.01217 6.22888 6.76172 5.97802 6.76172 5.68535V4.64011C6.76172 4.34744 7.01217 4.09658 7.30429 4.09658C7.59642 4.09658 7.84687 4.34744 7.84687 4.64011V5.68535C7.84687 5.97802 7.59642 6.22888 7.30429 6.22888Z" fill="black"/>
<path d="M1.04356 6.22888C0.75143 6.22888 0.500977 5.97802 0.500977 5.68535V4.64011C0.500977 4.34744 0.75143 4.09658 1.04356 4.09658C1.33568 4.09658 1.58614 4.34744 1.58614 4.64011V5.68535C1.58614 5.97802 1.33568 6.22888 1.04356 6.22888Z" fill="black"/>
<path d="M7.05467 1.00339C6.92924 1.00339 6.80423 1.12882 6.80423 1.25425C6.80423 1.37968 6.92924 1.50511 7.05467 1.50511C7.18011 1.50511 7.30513 1.42149 7.30513 1.25425C7.30513 1.08701 7.18011 1.00339 7.05467 1.00339ZM7.05467 2.59216C6.34499 2.59216 5.76074 2.00683 5.76074 1.29606C5.76074 0.585293 6.34499 -4.45843e-05 7.05467 -4.45843e-05C7.76436 -4.45843e-05 8.34861 0.585293 8.34861 1.29606C8.34861 2.00683 7.76436 2.59216 7.05467 2.59216Z" fill="black"/>
<path d="M22.7056 3.08933C22.5806 3.08933 22.4556 3.21476 22.4556 3.34019C22.4556 3.46562 22.5806 3.59105 22.7056 3.59105C22.8311 3.59105 22.9561 3.46562 22.9561 3.34019C22.9561 3.21476 22.8311 3.08933 22.7056 3.08933ZM22.7056 4.6781C21.9964 4.6781 21.4121 4.09276 21.4121 3.382C21.4121 2.67123 21.9964 2.08589 22.7056 2.08589C23.4153 2.08589 23.9996 2.67123 23.9996 3.382C23.9996 4.09276 23.4153 4.6781 22.7056 4.6781Z" fill="black"/>
<path d="M14.067 9.6156C13.9415 9.1975 13.5244 8.86302 13.0652 8.86302H11.4791C11.1449 8.40312 10.9365 7.85959 10.9365 7.27425C10.9365 6.01996 11.8546 5.39281 13.0235 5.26738C12.8147 5.30919 12.6893 5.43462 12.6893 5.68548C12.6893 6.10358 13.0235 6.43806 13.4406 6.43806C13.8582 6.43806 14.192 6.10358 14.192 5.68548C14.192 5.30919 13.8999 5.26738 13.5244 5.22557C13.5661 5.22557 13.5661 5.22557 13.6077 5.22557C14.192 5.22557 14.6929 5.30919 15.1521 5.51824C15.4026 5.64367 15.6114 5.81091 15.7781 5.97815L15.8197 6.01996C15.8197 6.01996 15.9452 6.14539 15.9868 6.27082C16.0285 6.35444 16.0702 6.39625 16.0702 6.43806C16.1539 6.6471 16.2373 6.93977 16.2373 7.23244C16.2373 7.81778 16.0285 8.40312 15.6947 8.82121C15.1105 8.82121 14.4841 9.07207 14.067 9.6156Z" fill="#E64C42"/>
<path d="M14.0659 10.1195C13.8571 10.1195 13.6484 9.95223 13.565 9.74313C13.4817 9.53404 13.3146 9.36676 13.0641 9.36676H11.478C11.3109 9.36676 11.1438 9.28312 11.0605 9.15766C10.6433 8.61401 10.4346 7.9449 10.4346 7.23397C10.4346 5.81212 11.3943 4.89209 12.9808 4.683C13.1475 4.683 13.3146 4.64118 13.5233 4.64118C13.8155 4.64118 14.0238 4.85027 14.0238 5.14301C14.0238 5.43574 13.8155 5.68666 13.5233 5.68666C13.3979 5.68666 13.2312 5.68666 13.1058 5.72848C12.0206 5.85394 11.478 6.35577 11.478 7.23397C11.478 7.61035 11.5614 7.98672 11.7702 8.32128H13.0224C13.7317 8.32128 14.316 8.78129 14.5247 9.4504C14.6081 9.74313 14.4414 10.0359 14.1493 10.0777C14.1493 10.1195 14.1076 10.1195 14.0659 10.1195Z" fill="black"/>
<path d="M15.6943 9.36169C15.2768 9.36169 15.0263 8.85986 15.2768 8.52531C15.3601 8.39985 15.4022 8.31621 15.4439 8.27439C15.4439 8.23257 15.4856 8.14893 15.4856 8.14893C15.5272 8.0653 15.611 7.81438 15.6527 7.6471C15.6943 7.47983 15.6943 7.35437 15.6943 7.14527C15.6943 7.10345 15.6943 7.01981 15.6943 6.97799C15.6943 6.85254 15.6943 6.89436 15.6943 6.85254C15.6527 6.64344 15.5689 6.47616 15.4439 6.30889C15.4022 6.26707 15.4022 6.26707 15.3601 6.22525C15.2768 6.14161 15.1101 6.01615 14.9013 5.93251C14.5671 5.76523 14.1083 5.6816 13.5657 5.6816H13.524C13.2319 5.6816 12.9814 5.4725 12.9814 5.17976C12.9814 4.88703 13.1902 4.63611 13.4823 4.63611C13.524 4.63611 13.524 4.63611 13.5657 4.63611C14.4837 4.63611 15.5272 4.84521 16.1119 5.55614C16.529 6.01615 16.6962 6.5598 16.6962 7.22891C16.6962 7.6471 16.6124 8.02348 16.4874 8.35803C16.4874 8.39985 16.4457 8.44167 16.4457 8.48349C16.3203 8.81804 16.1119 9.11078 16.0281 9.19442C15.9865 9.31988 15.8614 9.36169 15.6943 9.36169Z" fill="black"/>
<path d="M13.2731 5.72227C13.3147 5.80589 13.3981 5.8477 13.4818 5.8477C13.5652 5.8477 13.6485 5.80589 13.6902 5.72227C13.6485 5.72227 13.6069 5.72227 13.5652 5.72227C13.5235 5.72227 13.5235 5.72227 13.4818 5.72227C13.3981 5.72227 13.3147 5.72227 13.2731 5.72227ZM13.4398 6.89294C12.7305 6.89294 12.1875 6.34942 12.1875 5.63865C12.1875 5.17874 12.48 4.80245 12.9389 4.71883C13.1476 4.67702 13.3564 4.67702 13.5235 4.67702C13.7319 4.67702 13.9823 4.71883 14.2328 4.80245C14.3999 4.88607 14.692 5.13693 14.692 5.63865C14.692 6.30761 14.1494 6.89294 13.4398 6.89294Z" fill="black"/>
<path d="M17.4885 5.72498C17.1963 5.72498 16.9463 5.47406 16.9463 5.18132V1.50123C16.9463 1.20849 17.1963 0.957576 17.4885 0.957576C17.7806 0.957576 18.0314 1.20849 18.0314 1.50123V5.18132C17.9894 5.47406 17.7806 5.72498 17.4885 5.72498Z" fill="black"/>
</svg>
