<svg width="32" height="32" viewBox="0 0 32 32" fill="none" xmlns="http://www.w3.org/2000/svg">
<path d="M10.6667 21.3346H20.3509C26.3344 21.3346 27.2444 17.5757 28.348 12.0934C28.6664 10.5121 28.8256 9.72148 28.4428 9.19473C28.06 8.66797 27.3263 8.66797 25.8588 8.66797H8" stroke="#1A5632" stroke-width="1.5" stroke-linecap="round"/>
<path d="M10.6654 21.3346L7.17034 4.68788C6.87356 3.50076 5.80694 2.66797 4.5833 2.66797H3.33203" stroke="#1A5632" stroke-width="1.5" stroke-linecap="round"/>
<path d="M11.84 21.332H11.2914C9.47363 21.332 8 22.8671 8 24.7606C8 25.0762 8.2456 25.332 8.54857 25.332H23.3333" stroke="#1A5632" stroke-width="1.5" stroke-linecap="round" stroke-linejoin="round"/>
<path d="M14 29.332C15.1046 29.332 16 28.4366 16 27.332C16 26.2275 15.1046 25.332 14 25.332C12.8954 25.332 12 26.2275 12 27.332C12 28.4366 12.8954 29.332 14 29.332Z" stroke="#1A5632" stroke-width="1.5"/>
<path d="M23.332 29.332C24.4366 29.332 25.332 28.4366 25.332 27.332C25.332 26.2275 24.4366 25.332 23.332 25.332C22.2275 25.332 21.332 26.2275 21.332 27.332C21.332 28.4366 22.2275 29.332 23.332 29.332Z" stroke="#1A5632" stroke-width="1.5"/>
</svg>
