<svg width="25" height="25" viewBox="0 0 25 25" fill="none" xmlns="http://www.w3.org/2000/svg">
<path d="M21.945 11.2468C22.2546 11.681 22.4094 11.8981 22.4094 12.2195C22.4094 12.5408 22.2546 12.758 21.945 13.1922C20.5536 15.1432 17.0003 19.3491 12.2242 19.3491C7.44819 19.3491 3.8949 15.1432 2.50355 13.1922C2.19389 12.758 2.03906 12.5408 2.03906 12.2195C2.03906 11.8981 2.19389 11.681 2.50355 11.2468C3.8949 9.29576 7.44819 5.08984 12.2242 5.08984C17.0003 5.08984 20.5536 9.29576 21.945 11.2468Z" stroke="#1A5632" stroke-width="1.22222"/>
<path d="M15.2781 12.2235C15.2781 10.5359 13.9101 9.16797 12.2225 9.16797C10.535 9.16797 9.16699 10.5359 9.16699 12.2235C9.16699 13.9111 10.535 15.2791 12.2225 15.2791C13.9101 15.2791 15.2781 13.9111 15.2781 12.2235Z" stroke="#1A5632" stroke-width="1.22222"/>
</svg>
