<svg width="25" height="25" viewBox="0 0 25 25" fill="none" xmlns="http://www.w3.org/2000/svg">
<path d="M8.14837 16.2931H15.5461C20.1168 16.2931 20.8119 13.4217 21.6549 9.23384C21.8982 8.02591 22.0198 7.42195 21.7274 7.01957C21.4349 6.61719 20.8744 6.61719 19.7535 6.61719H6.11133" stroke="#1A5632" stroke-width="1.22222" stroke-linecap="round"/>
<path d="M8.14677 16.2944L5.47696 3.57814C5.25026 2.67131 4.43548 2.03516 3.50075 2.03516H2.54492" stroke="#1A5632" stroke-width="1.22222" stroke-linecap="round"/>
<path d="M9.04466 16.3008H8.62561C7.23701 16.3008 6.11133 17.4734 6.11133 18.9198C6.11133 19.1609 6.29894 19.3563 6.53038 19.3563H17.8243" stroke="#1A5632" stroke-width="1.22222" stroke-linecap="round" stroke-linejoin="round"/>
<path d="M10.6948 22.411C11.5385 22.411 12.2225 21.727 12.2225 20.8832C12.2225 20.0395 11.5385 19.3555 10.6948 19.3555C9.851 19.3555 9.16699 20.0395 9.16699 20.8832C9.16699 21.727 9.851 22.411 10.6948 22.411Z" stroke="#1A5632" stroke-width="1.22222"/>
<path d="M17.8227 22.411C18.6665 22.411 19.3505 21.727 19.3505 20.8832C19.3505 20.0395 18.6665 19.3555 17.8227 19.3555C16.9789 19.3555 16.2949 20.0395 16.2949 20.8832C16.2949 21.727 16.9789 22.411 17.8227 22.411Z" stroke="#1A5632" stroke-width="1.22222"/>
</svg>
