<svg width="36" height="38" viewBox="0 0 36 38" fill="none" xmlns="http://www.w3.org/2000/svg">
<path d="M20.375 1.58126H25.8748V6.3313H20.375V1.58126Z" fill="#2F4A5F"/>
<path d="M25.8115 6.33516H31.3113V11.0852H25.8115V6.33516Z" fill="#2F4A5F"/>
<path d="M14.875 6.33516H20.3748V11.0852H14.875V6.33516Z" fill="#2F4A5F"/>
<path d="M25.8115 15.8352H31.3113V20.5852H25.8115V15.8352Z" fill="#2F4A5F"/>
<path d="M14.875 15.8352H20.3748V20.5852H14.875V15.8352Z" fill="#2F4A5F"/>
<path d="M20.375 15.8352H25.8748V20.5852H20.375V15.8352Z" fill="#FEBE76"/>
<path d="M31.3113 11.9046V15.8313H25.8115V11.0813H31.3113V11.9046Z" fill="#FEBE76"/>
<path d="M20.375 11.0813H25.8748V15.8313H20.375V11.0813Z" fill="#2F4A5F"/>
<path d="M20.3748 11.0813V15.8313H14.875V11.0813H20.3748Z" fill="#FEBE76"/>
<path d="M20.375 6.33516H25.8748V11.0852H20.375V6.33516Z" fill="#FEBE76"/>
<path d="M25.8115 1.58126H31.3113V6.3313H25.8115V1.58126Z" fill="#FEBE76"/>
<path d="M14.875 1.58126H20.3748V6.3313H14.875V1.58126Z" fill="#FEBE76"/>
<path d="M34.4358 11.9085V20.5852H31.3115V11.9085H34.4358Z" fill="#D7DEED"/>
<path d="M14.8749 15.8352V20.5852H11.75V11.9085H14.8749V15.8352Z" fill="#D7DEED"/>
<path d="M0.813477 22.8022L6.31329 13.9988H11.7507V27.679H9.75083C9.18861 26.7289 8.18836 26.0956 7.06332 26.0956C5.87587 26.0956 4.87624 26.7289 4.37581 27.679H0.813477V22.8022Z" fill="#414A56"/>
<path d="M9.00096 0.81866C10.0636 0.81866 10.9384 1.70533 10.9384 2.78201C10.9384 3.85869 10.0636 4.74536 9.00096 4.74536C7.93831 4.74536 7.06348 3.85869 7.06348 2.78201C7.06348 1.70533 7.93831 0.81866 9.00096 0.81866Z" fill="#D7DEED"/>
<path d="M3.18782 7.91851C4.06265 7.91851 4.75029 8.61518 4.75029 9.50186C4.75029 10.3885 4.06265 11.0852 3.18782 11.0852C2.31299 11.0852 1.62598 10.3885 1.62598 9.50186C1.62598 8.61518 2.31299 7.91851 3.18782 7.91851Z" fill="#D7DEED"/>
<path d="M30.0608 27.7375C29.4986 26.7875 28.499 26.1542 27.374 26.1542C26.1865 26.1542 25.1863 26.7875 24.6864 27.7375C24.4362 28.1808 24.249 28.7508 24.249 29.3209C24.249 31.0942 25.6243 32.4875 27.374 32.4875C29.1236 32.4875 30.4983 31.0942 30.4983 29.3209C30.4983 28.6875 30.3735 28.1808 30.0608 27.7375Z" fill="#3C3B3D"/>
<path d="M9.75091 27.7375C9.1887 26.7875 8.18845 26.1542 7.0634 26.1542C5.87596 26.1542 4.87633 26.7875 4.3759 27.7375C4.12568 28.1808 3.93848 28.7508 3.93848 29.3209C3.93848 31.0942 5.31374 32.4875 7.0634 32.4875C8.81307 32.4875 10.1883 31.0942 10.1883 29.3209C10.1883 28.6875 10.0635 28.1808 9.75091 27.7375Z" fill="#3C3B3D"/>
<path d="M35.1863 23.7475V27.7375H30.0615C29.4993 26.7875 28.4997 26.1542 27.3746 26.1542C26.1872 26.1542 25.1869 26.7875 24.6871 27.7375H11.75V23.7475H35.1863Z" fill="#414A56"/>
<path d="M35.1863 20.5826V23.7493H11.75V20.5826H14.8749H20.3747H25.8121H31.312H34.4363H35.1863Z" fill="#57606F"/>
<path d="M27.3755 28.501C27.813 28.501 28.188 28.881 28.188 29.3244C28.188 29.7677 27.813 30.1477 27.3755 30.1477C26.9381 30.1477 26.5625 29.7677 26.5625 29.3244C26.6255 28.881 26.9381 28.501 27.3755 28.501Z" fill="black"/>
<path d="M7.06242 28.501C7.49984 28.501 7.87486 28.881 7.87486 29.3244C7.87486 29.7677 7.49984 30.1477 7.06242 30.1477C6.62501 30.1477 6.25 29.7677 6.25 29.3244C6.3124 28.881 6.62501 28.501 7.06242 28.501Z" fill="black"/>
<path d="M35.1862 24.5735H11.7499C11.3125 24.5735 10.9375 24.1935 10.9375 23.7501C10.9375 23.3068 11.3125 22.9268 11.7499 22.9268H35.1862C35.6236 22.9268 35.9993 23.3068 35.9993 23.7501C35.9993 24.1935 35.6236 24.5735 35.1862 24.5735Z" fill="black"/>
<path d="M14.8749 21.4055H11.7499C11.3125 21.4055 10.9375 21.0255 10.9375 20.5822C10.9375 20.1388 11.3125 19.7588 11.7499 19.7588H14.8749C15.3123 19.7588 15.6873 20.1388 15.6873 20.5822C15.6873 21.0255 15.3123 21.4055 14.8749 21.4055Z" fill="black"/>
<path d="M35.1856 28.5032H30.0608C29.6234 28.5032 29.249 28.1232 29.249 27.6798C29.249 27.2365 29.6234 26.8565 30.0608 26.8565H34.3738V21.2831H31.2483C30.8109 21.2831 30.4365 20.9031 30.4365 20.4598C30.4365 20.0164 30.8109 19.6364 31.2483 19.6364H35.1856C35.623 19.6364 35.9987 20.0164 35.9987 20.4598V27.6165C35.9987 28.1232 35.623 28.5032 35.1856 28.5032Z" fill="black"/>
<path d="M24.687 28.5032H11.7499C11.3125 28.5032 10.9375 28.1232 10.9375 27.6798C10.9375 27.2365 11.3125 26.8565 11.7499 26.8565H24.687C25.1245 26.8565 25.4995 27.2365 25.4995 27.6798C25.4371 28.1232 25.1245 28.5032 24.687 28.5032Z" fill="black"/>
<path d="M11.7508 28.5032H9.7509C9.31349 28.5032 8.93848 28.1232 8.93848 27.6798C8.93848 27.2365 9.31349 26.8565 9.7509 26.8565H10.9383V14.1897C10.9383 13.7464 11.3134 13.3664 11.7508 13.3664C12.1882 13.3664 12.5632 13.7464 12.5632 14.1897V27.6798C12.5632 28.1232 12.1882 28.5032 11.7508 28.5032Z" fill="black"/>
<path d="M4.37477 28.5032H0.81244C0.375025 28.5032 0 28.1232 0 27.6798V22.8031C0 22.6765 0.0624008 22.4865 0.1248 22.3598L5.62524 13.5564C5.75003 13.303 6.00026 13.1764 6.31226 13.1764H11.7497C12.1871 13.1764 12.5621 13.5564 12.5621 13.9997C12.5621 14.443 12.1871 14.8231 11.7497 14.8231H6.68726L1.56246 23.0565V26.9198H4.31237C4.74979 26.9198 5.12481 27.2998 5.12481 27.7432C5.12481 28.1232 4.81219 28.5032 4.37477 28.5032Z" fill="black"/>
<path d="M27.3749 26.9159C26.5618 26.9159 25.75 27.3592 25.375 28.1192C25.1872 28.4992 25.0624 28.8792 25.0624 29.3226C25.0624 30.6526 26.1244 31.7293 27.4373 31.7293C28.7495 31.7293 29.8121 30.6526 29.8121 29.3226C29.8121 28.8792 29.6873 28.4992 29.4995 28.1192C28.9997 27.3592 28.1873 26.9159 27.3749 26.9159ZM27.3749 33.2493C25.2496 33.2493 23.4375 31.4759 23.4375 29.2592C23.4375 28.5626 23.6247 27.8659 23.9373 27.2959C24.625 26.0925 25.9378 25.3325 27.3118 25.3325C28.6871 25.3325 30 26.0925 30.687 27.2959C30.9996 27.8659 31.1874 28.5626 31.1874 29.2592C31.3122 31.4759 29.4995 33.2493 27.3749 33.2493Z" fill="black"/>
<path d="M7.06235 26.9159C6.24992 26.9159 5.4375 27.3592 5.06248 28.1192C4.87528 28.4992 4.74986 28.8792 4.74986 29.3226C4.74986 30.6526 5.81251 31.7293 7.12475 31.7293C8.437 31.7293 9.49964 30.6526 9.49964 29.3226C9.49964 28.8792 9.37485 28.4992 9.18766 28.1192C8.68722 27.3592 7.87478 26.9159 7.06235 26.9159ZM7.06235 33.2493C4.93768 33.2493 3.125 31.4759 3.125 29.2592C3.125 28.5626 3.31282 27.8659 3.62482 27.2959C4.31245 26.0925 5.62531 25.3325 6.99995 25.3325C8.3746 25.3325 9.68747 26.0925 10.3751 27.2959C10.6877 27.8659 10.8749 28.5626 10.8749 29.2592C10.9997 31.4759 9.18765 33.2493 7.06235 33.2493Z" fill="black"/>
<path d="M8.62474 20.5852H3.12492C2.68751 20.5852 2.3125 20.2052 2.3125 19.7619C2.3125 19.3185 2.68751 18.9385 3.12492 18.9385H7.81232V17.3552C7.81232 16.9118 8.18733 16.5318 8.62474 16.5318C9.06216 16.5318 9.43717 16.9118 9.43717 17.3552V19.7619C9.43717 20.2052 9.06216 20.5852 8.62474 20.5852Z" fill="black"/>
<path d="M7.87486 23.7493H7.06242C6.62501 23.7493 6.25 23.3693 6.25 22.9259C6.25 22.4826 6.62501 22.1026 7.06242 22.1026H7.87486C8.31228 22.1026 8.68729 22.4826 8.68729 22.9259C8.68729 23.3693 8.24988 23.7493 7.87486 23.7493Z" fill="black"/>
<path d="M35.187 33.2493H2.37592C1.9385 33.2493 1.56348 32.8693 1.56348 32.4259C1.56348 31.9826 1.9385 31.6026 2.37592 31.6026H35.187C35.6244 31.6026 36 31.9826 36 32.4259C36 32.8693 35.6244 33.2493 35.187 33.2493Z" fill="black"/>
<path d="M25.812 35.6555H6.31244C5.87502 35.6555 5.5 35.2755 5.5 34.8322C5.5 34.3888 5.87502 34.0088 6.31244 34.0088H25.8744C26.3118 34.0088 26.6875 34.3888 26.6875 34.8322C26.6244 35.2755 26.2494 35.6555 25.812 35.6555Z" fill="black"/>
<path d="M35.187 37.9993H2.37592C1.9385 37.9993 1.56348 37.6193 1.56348 37.1759C1.56348 36.7326 1.9385 36.3526 2.37592 36.3526H35.187C35.6244 36.3526 36 36.7326 36 37.1759C36 37.6193 35.6244 37.9993 35.187 37.9993Z" fill="black"/>
<path d="M20.3747 21.4055H14.8749C14.4375 21.4055 14.0625 21.0255 14.0625 20.5822V15.8321C14.0625 15.3888 14.4375 15.0088 14.8749 15.0088C15.3123 15.0088 15.6874 15.3888 15.6874 15.8321V19.8222H20.3747C20.8122 19.8222 21.1872 20.2022 21.1872 20.6455C21.1872 21.0888 20.7498 21.4055 20.3747 21.4055Z" fill="black"/>
<path d="M25.8113 21.4055H20.3114C19.874 21.4055 19.499 21.0255 19.499 20.5822V15.8321C19.499 15.3888 19.874 15.0088 20.3114 15.0088C20.7489 15.0088 21.1239 15.3888 21.1239 15.8321V19.8222H25.8113C26.2487 19.8222 26.6237 20.2022 26.6237 20.6455C26.6237 21.0888 26.2487 21.4055 25.8113 21.4055Z" fill="black"/>
<path d="M31.3122 21.4055H25.8124C25.375 21.4055 25 21.0255 25 20.5822V15.8321C25 15.3888 25.375 15.0088 25.8124 15.0088C26.2498 15.0088 26.6249 15.3888 26.6249 15.8321V19.8222H30.4992V15.8321C30.4992 15.3888 30.8748 15.0088 31.3122 15.0088C31.7497 15.0088 32.1247 15.3888 32.1247 15.8321V20.5822C32.0623 21.0255 31.6866 21.4055 31.3122 21.4055Z" fill="black"/>
<path d="M17.9989 19.0032H17.1865C16.749 19.0032 16.374 18.6232 16.374 18.1798C16.374 17.7365 16.749 17.3565 17.1865 17.3565H17.9989C18.4363 17.3565 18.8113 17.7365 18.8113 18.1798C18.8113 18.6232 18.4363 19.0032 17.9989 19.0032Z" fill="black"/>
<path d="M23.4995 19.0032H22.6871C22.2497 19.0032 21.874 18.6232 21.874 18.1798C21.874 17.7365 22.2497 17.3565 22.6871 17.3565H23.4995C23.9369 17.3565 24.3119 17.7365 24.3119 18.1798C24.2495 18.6232 23.8745 19.0032 23.4995 19.0032Z" fill="black"/>
<path d="M28.937 19.0032H28.1246C27.6872 19.0032 27.3115 18.6232 27.3115 18.1798C27.3115 17.7365 27.6872 17.3565 28.1246 17.3565H28.937C29.3744 17.3565 29.7494 17.7365 29.7494 18.1798C29.7494 18.6232 29.3744 19.0032 28.937 19.0032Z" fill="black"/>
<path d="M20.3747 16.6555H14.8749C14.4375 16.6555 14.0625 16.2755 14.0625 15.8322V11.0821C14.0625 10.6388 14.4375 10.2588 14.8749 10.2588C15.3123 10.2588 15.6874 10.6388 15.6874 11.0821V15.0722H20.3747C20.8122 15.0722 21.1872 15.4522 21.1872 15.8955C21.1248 16.2755 20.7498 16.6555 20.3747 16.6555Z" fill="black"/>
<path d="M25.8113 16.6555H20.3114C19.874 16.6555 19.499 16.2755 19.499 15.8322V11.0821C19.499 10.6388 19.874 10.2588 20.3114 10.2588C20.7489 10.2588 21.1239 10.6388 21.1239 11.0821V15.0722H25.8113C26.2487 15.0722 26.6237 15.4522 26.6237 15.8955C26.6237 16.2755 26.2487 16.6555 25.8113 16.6555Z" fill="black"/>
<path d="M31.3122 16.6555H25.8124C25.375 16.6555 25 16.2755 25 15.8322V11.0821C25 10.6388 25.375 10.2588 25.8124 10.2588C26.2498 10.2588 26.6249 10.6388 26.6249 11.0821V15.0722H30.4992V11.0821C30.4992 10.6388 30.8748 10.2588 31.3122 10.2588C31.7497 10.2588 32.1247 10.6388 32.1247 11.0821V15.8322C32.0623 16.2755 31.6866 16.6555 31.3122 16.6555Z" fill="black"/>
<path d="M17.9989 14.2493H17.1865C16.749 14.2493 16.374 13.8693 16.374 13.4259C16.374 12.9826 16.749 12.6026 17.1865 12.6026H17.9989C18.4363 12.6026 18.8113 12.9826 18.8113 13.4259C18.8113 13.8693 18.4363 14.2493 17.9989 14.2493Z" fill="black"/>
<path d="M23.4995 14.2493H22.6871C22.2497 14.2493 21.874 13.8693 21.874 13.4259C21.874 12.9826 22.2497 12.6026 22.6871 12.6026H23.4995C23.9369 12.6026 24.3119 12.9826 24.3119 13.4259C24.2495 13.8693 23.8745 14.2493 23.4995 14.2493Z" fill="black"/>
<path d="M28.937 14.2493H28.1246C27.6872 14.2493 27.3115 13.8693 27.3115 13.4259C27.3115 12.9826 27.6872 12.6026 28.1246 12.6026H28.937C29.3744 12.6026 29.7494 12.9826 29.7494 13.4259C29.7494 13.8693 29.3744 14.2493 28.937 14.2493Z" fill="black"/>
<path d="M20.3747 11.9094H14.8749C14.4375 11.9094 14.0625 11.5294 14.0625 11.0861V6.33604C14.0625 5.8927 14.4375 5.5127 14.8749 5.5127C15.3123 5.5127 15.6874 5.8927 15.6874 6.33604V10.3261H20.3747C20.8122 10.3261 21.1872 10.7061 21.1872 11.1494C21.1248 11.5294 20.7498 11.9094 20.3747 11.9094Z" fill="black"/>
<path d="M25.8113 11.9094H20.3114C19.874 11.9094 19.499 11.5294 19.499 11.0861V6.33604C19.499 5.8927 19.874 5.5127 20.3114 5.5127C20.7489 5.5127 21.1239 5.8927 21.1239 6.33604V10.3261H25.8113C26.2487 10.3261 26.6237 10.7061 26.6237 11.1494C26.6237 11.5294 26.2487 11.9094 25.8113 11.9094Z" fill="black"/>
<path d="M31.3122 11.9094H25.8124C25.375 11.9094 25 11.5294 25 11.0861V6.33604C25 5.8927 25.375 5.5127 25.8124 5.5127C26.2498 5.5127 26.6249 5.8927 26.6249 6.33604V10.3261H30.4992V6.33604C30.4992 5.8927 30.8748 5.5127 31.3122 5.5127C31.7497 5.5127 32.1247 5.8927 32.1247 6.33604V11.0861C32.0623 11.5294 31.6866 11.9094 31.3122 11.9094Z" fill="black"/>
<path d="M17.9989 9.50317H17.1865C16.749 9.50317 16.374 9.12317 16.374 8.67983C16.374 8.2365 16.749 7.85649 17.1865 7.85649H17.9989C18.4363 7.85649 18.8113 8.2365 18.8113 8.67983C18.8113 9.12317 18.4363 9.50317 17.9989 9.50317Z" fill="black"/>
<path d="M23.4995 9.50317H22.6871C22.2497 9.50317 21.874 9.12317 21.874 8.67983C21.874 8.2365 22.2497 7.85649 22.6871 7.85649H23.4995C23.9369 7.85649 24.3119 8.2365 24.3119 8.67983C24.3119 9.12317 23.8745 9.50317 23.4995 9.50317Z" fill="black"/>
<path d="M28.937 9.50317H28.1246C27.6872 9.50317 27.3115 9.12317 27.3115 8.67983C27.3115 8.2365 27.6872 7.85649 28.1246 7.85649H28.937C29.3744 7.85649 29.7494 8.2365 29.7494 8.67983C29.7494 9.12317 29.3744 9.50317 28.937 9.50317Z" fill="black"/>
<path d="M20.3747 7.15552H14.8749C14.4375 7.15552 14.0625 6.77551 14.0625 6.33218V1.58213C14.0625 1.1388 14.4375 0.758793 14.8749 0.758793H20.3747C20.8122 0.758793 21.1872 1.1388 21.1872 1.58213C21.1872 2.02547 20.8122 2.40547 20.3747 2.40547H15.6874V5.57217H20.3747C20.8122 5.57217 21.1872 5.95217 21.1872 6.39551C21.1248 6.77551 20.7498 7.15552 20.3747 7.15552Z" fill="black"/>
<path d="M25.8113 7.15552H20.3114C19.874 7.15552 19.499 6.77551 19.499 6.33218V1.58213C19.499 1.1388 19.874 0.758793 20.3114 0.758793H25.8113C26.2487 0.758793 26.6237 1.1388 26.6237 1.58213C26.6237 2.02547 26.2487 2.40547 25.8113 2.40547H21.1239V5.57217H25.8113C26.2487 5.57217 26.6237 5.95217 26.6237 6.39551C26.6237 6.77551 26.2487 7.15552 25.8113 7.15552Z" fill="black"/>
<path d="M26.6249 5.57217H30.4992V2.40547H26.5618V5.57217H26.6249ZM31.3122 7.15552H25.8124C25.375 7.15552 25 6.77551 25 6.33218V1.58213C25 1.1388 25.375 0.758793 25.8124 0.758793H31.3122C31.7497 0.758793 32.1247 1.1388 32.1247 1.58213V6.33218C32.0623 6.77551 31.6866 7.15552 31.3122 7.15552Z" fill="black"/>
<path d="M17.9989 4.74536H17.1865C16.749 4.74536 16.374 4.36536 16.374 3.92202C16.374 3.47868 16.749 3.09868 17.1865 3.09868H17.9989C18.4363 3.09868 18.8113 3.47868 18.8113 3.92202C18.8113 4.36536 18.4363 4.74536 17.9989 4.74536Z" fill="black"/>
<path d="M23.4995 4.74536H22.6871C22.2497 4.74536 21.874 4.36536 21.874 3.92202C21.874 3.47868 22.2497 3.09868 22.6871 3.09868H23.4995C23.9369 3.09868 24.3119 3.47868 24.3119 3.92202C24.2495 4.36536 23.8745 4.74536 23.4995 4.74536Z" fill="black"/>
<path d="M28.937 4.74536H28.1246C27.6872 4.74536 27.3115 4.36536 27.3115 3.92202C27.3115 3.47868 27.6872 3.09868 28.1246 3.09868H28.937C29.3744 3.09868 29.7494 3.47868 29.7494 3.92202C29.7494 4.36536 29.3744 4.74536 28.937 4.74536Z" fill="black"/>
<path d="M34.4358 21.4055C33.9984 21.4055 33.624 21.0255 33.624 20.5822V9.49874C33.624 9.05541 33.9984 8.6754 34.4358 8.6754C34.8739 8.6754 35.2489 9.05541 35.2489 9.49874V20.5822C35.1859 21.0255 34.8115 21.4055 34.4358 21.4055Z" fill="black"/>
<path d="M11.7499 15.0735C11.3125 15.0735 10.9375 14.6935 10.9375 14.2501V9.5001C10.9375 9.05677 11.3125 8.67676 11.7499 8.67676C12.1874 8.67676 12.5624 9.05677 12.5624 9.5001V14.2501C12.5624 14.6935 12.1874 15.0735 11.7499 15.0735Z" fill="black"/>
<path d="M14.8749 12.6672H11.7499C11.3125 12.6672 10.9375 12.2872 10.9375 11.8439C10.9375 11.4006 11.3125 11.0206 11.7499 11.0206H14.8749C15.3123 11.0206 15.6873 11.4006 15.6873 11.8439C15.6873 12.2872 15.3123 12.6672 14.8749 12.6672Z" fill="black"/>
<path d="M34.4354 12.6672H31.3111C30.8737 12.6672 30.498 12.2872 30.498 11.8439C30.498 11.4006 30.8737 11.0206 31.3111 11.0206H34.4354C34.8734 11.0206 35.2484 11.4006 35.2484 11.8439C35.1854 12.2872 34.811 12.6672 34.4354 12.6672Z" fill="black"/>
<path d="M3.18836 8.74273C2.75095 8.74273 2.37594 9.12273 2.37594 9.56607C2.37594 10.0094 2.75095 10.3894 3.18836 10.3894C3.62578 10.3894 4.00079 10.0094 4.00079 9.56607C4.00079 9.12273 3.56338 8.74273 3.18836 8.74273ZM3.18836 11.9094C1.87612 11.9094 0.813477 10.8327 0.813477 9.50274C0.813477 8.17272 1.87612 7.09605 3.18836 7.09605C4.50123 7.09605 5.50085 8.17272 5.50085 9.50274C5.50085 10.8327 4.43821 11.9094 3.18836 11.9094Z" fill="black"/>
<path d="M8.99991 1.58345C8.37468 1.58345 7.81246 2.09012 7.81246 2.78679C7.81246 3.48347 8.31228 3.99014 8.99991 3.99014C9.68754 3.99014 10.1874 3.48347 10.1874 2.78679C10.1874 2.09012 9.68754 1.58345 8.99991 1.58345ZM8.99991 5.57349C7.49985 5.57349 6.25 4.30681 6.25 2.78679C6.25 1.26678 7.49985 0.000102997 8.99991 0.000102997C10.5 0.000102997 11.7498 1.26678 11.7498 2.78679C11.7498 4.30681 10.5 5.57349 8.99991 5.57349Z" fill="black"/>
</svg>
