<svg width="34" height="38" viewBox="0 0 34 38" fill="none" xmlns="http://www.w3.org/2000/svg">
<path d="M20.2345 4.15223C21.5185 4.15223 22.5599 5.22243 22.5599 6.54303C22.5599 7.86364 21.5185 8.93384 20.2345 8.93384C18.9508 8.93384 17.9102 7.86364 17.9102 6.54303C17.9102 5.22243 18.9508 4.15223 20.2345 4.15223Z" fill="#D7DEED"/>
<path d="M31.6754 19.1201C32.5317 19.1201 33.2049 19.8121 33.2049 20.693C33.2049 21.5738 32.5317 22.2659 31.6754 22.2659C30.819 22.2659 30.1465 21.5738 30.1465 20.693C30.1465 19.8121 30.819 19.1201 31.6754 19.1201Z" fill="#D7DEED"/>
<path d="M4.14491 24.6552C5.00128 24.6552 5.67434 25.3473 5.67434 26.2281C5.67434 27.109 5.00128 27.801 4.14491 27.801C3.28823 27.801 2.61523 27.046 2.61523 26.2281C2.61523 25.4102 3.28823 24.6552 4.14491 24.6552Z" fill="#D7DEED"/>
<path d="M7.38692 1.19613C7.81523 2.89487 7.32596 4.71943 6.10224 5.97775L5.85773 6.22941C4.63371 7.48773 2.85953 7.99106 1.20775 7.55065H1.14654C0.718476 7.42481 0.534681 6.85857 0.902025 6.54399L6.4079 0.881555C6.7141 0.566975 7.26476 0.755723 7.38692 1.19613Z" fill="#414A56"/>
<path d="M17.7872 16.7954L16.3801 18.2424L13.1377 14.9079L13.8717 14.2158L14.5447 13.4608L17.7872 16.7954Z" fill="#414A56"/>
<path d="M15.0344 13.0238L14.5447 13.4642L13.8716 14.2191L13.1377 14.9111L12.7094 15.4143L4.81738 7.2993L5.85761 6.22988L6.10212 5.97825L7.14205 4.90883L15.0344 13.0238Z" fill="#57606F"/>
<path d="M23.3554 14.9065L14.5453 23.9651L12.71 22.0779L16.3807 18.2405L17.7878 16.7937L21.5199 13.0193L23.3554 14.9065Z" fill="#7E8C8D"/>
<path d="M25.3735 16.981C27.6983 19.3715 27.8204 23.2088 25.6795 25.7251C25.6184 25.7251 25.6184 25.6622 25.5567 25.6622C25.4956 25.5993 25.4346 25.5364 25.3735 25.5364C25.2513 25.4735 25.1896 25.4106 25.0675 25.3477L25.0064 25.2847C24.9453 25.2847 24.9453 25.2218 24.8842 25.2218L24.8225 25.1589C24.7614 25.1589 24.7614 25.096 24.7004 25.096C24.6393 25.096 24.6393 25.0331 24.5782 25.0331C24.5165 25.0331 24.5165 24.9702 24.4554 24.9702C24.4554 24.9702 24.4554 24.9702 24.3943 24.9702H24.3333H24.2722C24.2111 24.9702 24.2111 24.9702 24.1494 24.9073C24.1494 24.9073 24.1494 24.9073 24.0883 24.9073H24.0272H23.9662C23.9662 24.9073 23.9662 24.9073 23.9051 24.9073C23.9051 24.9073 23.9051 24.9073 23.844 24.9073H23.7829H23.7212H23.6601C23.6601 24.9073 23.6601 24.9073 23.5991 24.9073H23.538H23.4769C23.4769 24.9073 23.4769 24.9073 23.4158 24.9073H23.3547C23.3547 24.9073 23.3547 24.9073 23.293 24.9073H23.232C23.232 24.9073 23.232 24.9073 23.1709 24.9073H23.1098C23.0487 24.9073 23.0487 24.9073 22.9876 24.9073C22.9265 24.9073 22.9265 24.9073 22.8648 24.9073C22.8038 24.9073 22.8038 24.9073 22.7427 24.9073C22.6816 24.9073 22.6816 24.9073 22.6205 24.9073H22.5594H22.4984H22.4367H22.3756C22.2534 24.9073 22.1312 24.9702 22.0696 24.9702H22.0085H21.9474C21.8863 24.9702 21.8252 25.0331 21.7641 25.0331C21.7031 25.0331 21.7031 25.0331 21.6414 25.096C21.6414 25.096 21.5803 25.096 21.5803 25.1589C21.5192 25.1589 21.4581 25.2218 21.397 25.2218C21.397 25.2218 21.336 25.2218 21.336 25.2847C21.2132 25.3477 21.091 25.4106 20.9689 25.4735L20.9072 25.5364C20.8461 25.5993 20.785 25.5993 20.7239 25.6622C20.6628 25.7251 20.6012 25.7251 20.6012 25.788C20.5401 25.788 20.5401 25.8509 20.479 25.8509C20.4179 25.8509 20.4179 25.9138 20.3568 25.9767C20.2957 26.0396 20.2957 26.0396 20.234 26.1025C20.173 26.1654 20.173 26.1654 20.1119 26.2283C20.0508 26.2913 20.0508 26.2913 19.9897 26.3542C19.9286 26.4171 19.9286 26.4171 19.8669 26.48C19.8059 26.5429 19.8059 26.5429 19.7448 26.6058C19.7448 26.6687 19.6837 26.6687 19.6837 26.7316C19.6837 26.7945 19.6227 26.7945 19.6227 26.8574C19.6227 26.9203 19.5615 26.9203 19.5615 26.9832C19.5615 26.9832 19.5615 26.9832 19.5615 27.0461C19.5615 27.109 19.5001 27.109 19.5001 27.172C19.5001 27.2349 19.4391 27.2349 19.4391 27.2978C19.3779 27.3607 19.3779 27.4236 19.3779 27.4865C19.3779 27.5494 19.3168 27.5494 19.3168 27.6123C19.3168 27.6752 19.2556 27.7381 19.2556 27.801C19.1941 27.801 19.072 27.801 19.0108 27.801C18.2156 27.4865 17.5426 26.9832 16.8695 26.3542L14.8506 24.2782L23.6601 15.2196L25.3735 16.981Z" fill="#95A5A5"/>
<path d="M22.9878 24.6618C23.0489 24.6618 23.0489 24.6618 23.0489 24.6618C23.0489 24.6618 23.0489 24.6618 23.11 24.6618H23.1711C23.1711 24.6618 23.1711 24.6618 23.2321 24.6618H23.2932C23.2932 24.6618 23.2932 24.6618 23.3549 24.6618H23.416H23.4771H23.5382H23.5992C23.5992 24.6618 23.5992 24.6618 23.6603 24.6618C23.6603 24.6618 23.6603 24.6618 23.7214 24.6618H23.7831H23.8442H23.9053H23.9663C24.0274 24.6618 24.0885 24.7247 24.1496 24.7247C24.1496 24.7247 24.2113 24.7247 24.2113 24.7877C24.2113 24.7877 24.2724 24.7877 24.2724 24.8506C24.3335 24.9135 24.4556 24.9135 24.5167 24.9764C24.5784 24.9764 24.6395 25.0393 24.7006 25.0393C24.9455 25.1651 25.1898 25.3538 25.3737 25.5425C25.4958 25.6683 25.6797 25.7942 25.8019 25.9829L25.8629 26.0458C25.8629 26.1087 25.924 26.1087 25.924 26.1716C26.475 25.6054 27.2703 25.228 28.1266 25.228C29.9011 25.228 31.3689 26.6749 31.3689 28.5621C31.3689 29.0024 31.3078 29.4428 31.1245 29.8202C32.1642 30.5122 32.8984 31.7703 32.8984 33.1543C32.8984 35.356 31.1856 37.1174 29.0441 37.1174C27.8817 37.1174 24.6395 37.1174 23.5382 37.1174C22.2536 37.1174 19.011 37.1174 17.7261 37.1174C16.8697 37.1174 8.24329 37.1174 7.01976 37.1174C5.24563 37.1174 3.77734 35.6706 3.77734 33.7834C3.77734 31.8961 5.24563 30.4493 7.01976 30.4493C7.26476 30.4493 7.50927 30.5122 7.75402 30.5122C8.18209 28.8137 9.65056 27.6185 11.4246 27.6185C12.893 27.6185 14.1165 28.4363 14.7896 29.6944C15.34 30.0089 15.7686 30.3864 16.1357 30.8896C16.319 30.7638 16.5638 30.638 16.8088 30.5751C17.2368 30.1977 17.7873 29.946 18.3379 29.946C18.3992 29.946 18.4603 29.946 18.5213 29.946C18.3992 29.5686 18.3379 29.1911 18.3379 28.7508C18.3379 28.2475 18.3992 27.7443 18.5829 27.241C18.5829 27.1781 18.6439 27.1152 18.6439 27.0523C18.6439 26.9894 18.705 26.9894 18.705 26.9265C18.705 26.8636 18.7663 26.8007 18.7663 26.7378C18.7663 26.6749 18.8275 26.6749 18.8275 26.612C18.8275 26.549 18.8884 26.549 18.8884 26.4861C18.8884 26.4861 18.8884 26.4861 18.8884 26.4232C18.8884 26.3603 18.9498 26.3603 18.9498 26.2974C18.9498 26.2345 19.011 26.2345 19.011 26.1716C19.011 26.1087 19.0722 26.1087 19.0722 26.0458C19.0722 25.9829 19.1331 25.9829 19.1943 25.92C19.2555 25.8571 19.2555 25.8571 19.317 25.7942C19.3781 25.7313 19.3781 25.7313 19.4393 25.6683C19.5003 25.6054 19.5003 25.6054 19.5614 25.5425C19.6229 25.4796 19.6229 25.4796 19.6839 25.4167C19.745 25.3538 19.745 25.3538 19.8061 25.2909C19.8671 25.2909 19.8671 25.228 19.9282 25.228C19.9899 25.1651 20.051 25.1651 20.051 25.1022C20.1121 25.0393 20.1732 25.0393 20.2342 24.9764L20.2953 24.9135C20.4181 24.8506 20.5403 24.7877 20.6624 24.7247C20.6624 24.7247 20.7241 24.7247 20.7241 24.6618C20.7852 24.6618 20.8463 24.5989 20.9074 24.5989C20.9074 24.5989 20.9684 24.5989 20.9684 24.536C20.9684 24.536 21.0295 24.536 21.0912 24.4731C21.1523 24.4731 21.2134 24.4102 21.2745 24.4102H21.3355H21.3972C21.5194 24.4102 21.5805 24.3473 21.7027 24.3473H21.7643H21.8254H21.8865H21.9476C22.0087 24.3473 22.0087 24.3473 22.0697 24.3473C22.1314 24.3473 22.1314 24.3473 22.1925 24.3473C22.2536 24.3473 22.2536 24.3473 22.3147 24.3473C22.9267 24.6618 22.9267 24.6618 22.9878 24.6618Z" fill="#FFD8A8"/>
<path d="M8.36661 20.6954C8.97829 20.6954 9.52894 21.1987 9.52894 21.8908C9.52894 22.5829 9.03967 23.0862 8.36661 23.0862C7.69355 23.0862 7.2041 22.5829 7.2041 21.8908C7.2041 21.1987 7.69355 20.6954 8.36661 20.6954Z" fill="black"/>
<path d="M5.3068 15.6641C5.91866 15.6641 6.46913 16.1675 6.46913 16.8595C6.46913 17.4887 5.97986 18.0549 5.3068 18.0549C4.63374 18.0549 4.14453 17.5516 4.14453 16.8595C4.14453 16.1675 4.63374 15.6641 5.3068 15.6641Z" fill="black"/>
<path d="M14.5452 24.7854C14.3618 24.7854 14.1781 24.7225 13.9947 24.5338L12.1591 22.6466C11.8532 22.332 11.8532 21.8288 12.1591 21.5142L15.891 17.6769C16.1972 17.3624 16.6865 17.3624 16.9924 17.6769C17.2984 17.9914 17.2984 18.4947 16.9924 18.8092L13.8112 22.0804L14.6064 22.8982L22.315 14.9719L21.5197 14.1541L18.3383 17.4253C18.0323 17.7398 17.5431 17.7398 17.2372 17.4253C16.9312 17.1107 16.9312 16.6075 17.2372 16.2929L20.9688 12.4556C21.2748 12.1411 21.7647 12.1411 22.0701 12.4556L23.9056 14.3428C24.0278 14.4686 24.1499 14.7203 24.1499 14.909C24.1499 15.0977 24.0889 15.2864 23.9056 15.4752L15.0959 24.5338C14.9732 24.6596 14.7287 24.7854 14.5452 24.7854Z" fill="black"/>
<path d="M14.545 14.2815C14.3617 14.2815 14.1779 14.2186 13.9946 14.0299C13.7498 13.7782 13.6886 13.3379 13.9331 13.0234L7.14233 6.04067L6.65306 6.54393C6.3471 6.85846 5.85789 6.85846 5.55169 6.54393C5.24579 6.22939 5.24579 5.72613 5.55169 5.4116L6.59185 4.34218C6.89781 4.02764 7.38708 4.02764 7.69298 4.34218L15.5851 12.4572C15.8909 12.7717 15.8909 13.275 15.5851 13.5895L15.0957 14.0928C14.9121 14.2186 14.7285 14.2815 14.545 14.2815Z" fill="black"/>
<path d="M12.7092 16.1682C12.5258 16.1682 12.342 16.1053 12.1585 15.9166L4.26658 7.86448C3.96062 7.54995 3.96062 7.04669 4.26658 6.73215L5.3065 5.66273C5.61246 5.3482 6.10197 5.3482 6.40763 5.66273C6.71383 5.97727 6.71383 6.48053 6.40763 6.79506L5.91836 7.29832L12.7092 14.281C13.0151 14.0294 13.4434 14.0923 13.6882 14.3439C13.9941 14.6584 13.9941 15.1617 13.6882 15.4762L13.1984 15.9795C13.0763 16.1053 12.8928 16.1682 12.7092 16.1682Z" fill="black"/>
<path d="M16.3817 19.0588C16.1984 19.0588 16.0146 18.9959 15.8313 18.8072L12.5888 15.4726C12.2829 15.158 12.2829 14.6547 12.5888 14.3401C12.8946 14.0256 13.3841 14.0256 13.69 14.3401L16.3817 17.1084L16.6877 16.7939L13.9959 14.0256C13.69 13.711 13.69 13.2077 13.9959 12.8931C14.3018 12.5785 14.7911 12.5785 15.0971 12.8931L18.3395 16.2276C18.6454 16.5422 18.6454 17.0455 18.3395 17.3601L16.9324 18.8072C16.8103 18.933 16.6265 19.0588 16.3817 19.0588Z" fill="black"/>
<path d="M13.1393 15.7268C12.9557 15.7268 12.7722 15.6639 12.5888 15.4751C12.2829 15.1606 12.2829 14.6572 12.5888 14.3427L13.9959 12.8956C14.3018 12.581 14.7911 12.581 15.0971 12.8956C15.403 13.2102 15.403 13.7135 15.0971 14.0281L13.69 15.4751C13.5674 15.601 13.3841 15.7268 13.1393 15.7268Z" fill="black"/>
<path d="M1.69786 6.85685C1.94237 6.91976 2.18707 6.91976 2.43182 6.91976C3.53295 6.91976 4.57318 6.47941 5.36834 5.66161L5.6131 5.40999C6.53067 4.46638 6.95922 3.01952 6.77543 1.69847L1.69786 6.85685ZM2.37068 8.49243C1.88117 8.49243 1.45287 8.42952 1.0248 8.30371C0.535049 8.1779 0.168185 7.80045 0.0457772 7.3601C-0.0763282 6.85685 0.0457776 6.35359 0.41288 6.03906L5.919 0.377421C6.16375 0.125793 6.53067 -2.09808e-05 6.89802 -2.09808e-05C7.50963 -2.09808e-05 8.06035 0.440329 8.18245 1.0694C8.6722 3.01952 8.12149 5.15836 6.71447 6.60522L6.46947 6.85685C5.30714 7.92627 3.90011 8.49243 2.37068 8.49243Z" fill="black"/>
<path d="M22.6824 25.4139C22.2543 25.4139 21.9482 25.0993 21.9482 24.6589C21.9482 24.2185 22.2543 23.841 22.6824 23.841C22.7435 23.841 22.7435 23.841 22.8046 23.841C22.8657 23.841 22.8657 23.841 22.9274 23.841C23.3556 23.841 23.7221 24.2185 23.7221 24.6589C23.7221 25.0993 23.3556 25.4768 22.9274 25.4768C22.8657 25.4768 22.8657 25.4768 22.8046 25.4768C22.7435 25.4139 22.7435 25.4139 22.6824 25.4139Z" fill="black"/>
<path d="M22.4377 25.4143C22.0706 25.4143 21.7041 25.0997 21.7041 24.6593C21.6424 24.2189 22.0095 23.8414 22.4377 23.8414H22.4994C22.9275 23.7785 23.294 24.156 23.294 24.5964C23.3557 25.0368 22.9886 25.4143 22.5604 25.4143H22.4994C22.5604 25.4143 22.5604 25.4143 22.4377 25.4143C22.4994 25.4143 22.4994 25.4143 22.4377 25.4143Z" fill="black"/>
<path d="M22.1937 25.4803C21.8266 25.4803 21.5206 25.2286 21.4595 24.8511C21.3984 24.4107 21.6427 24.0332 22.0709 23.9703C22.1326 23.9703 22.1326 23.9703 22.1937 23.9703H22.2548C22.683 23.9074 23.0501 24.222 23.1111 24.6624C23.1722 25.1028 22.8662 25.4803 22.438 25.5432C22.438 25.5432 22.438 25.5432 22.3769 25.5432H22.3159C22.3159 25.4803 22.2548 25.4803 22.1937 25.4803Z" fill="black"/>
<path d="M21.8264 25.535C21.4593 25.535 21.1533 25.2833 21.0922 24.9687C20.9694 24.5283 21.2144 24.0879 21.6426 24.025C21.7042 24.025 21.7042 24.025 21.7653 24.025C22.1935 23.9621 22.5606 24.2137 22.6828 24.6542C22.8049 25.0946 22.4995 25.4721 22.0707 25.5979C21.9486 25.535 21.8875 25.535 21.8264 25.535Z" fill="black"/>
<path d="M21.705 25.5979C21.399 25.5979 21.093 25.4092 20.9702 25.0317C20.848 24.5912 21.093 24.1508 21.4601 24.025C21.5212 24.025 21.5212 24.025 21.5822 23.9621C22.0104 23.8363 22.3775 24.0879 22.5003 24.5283C22.6225 24.9687 22.3775 25.3462 21.9493 25.4721C21.8883 25.535 21.8272 25.5979 21.705 25.5979Z" fill="black"/>
<path d="M21.4596 25.6643C21.1536 25.6643 20.8476 25.4756 20.7254 25.161C20.6027 24.7835 20.7865 24.2802 21.1536 24.1543C21.2147 24.1543 21.2147 24.1543 21.2758 24.0914C21.7046 23.9656 22.1327 24.2172 22.2549 24.5947C22.3771 25.0351 22.1328 25.4756 21.7656 25.6014H21.7046C21.5818 25.6643 21.5207 25.6643 21.4596 25.6643Z" fill="black"/>
<path d="M21.3362 25.7229C21.0308 25.7229 20.7248 25.5342 20.602 25.2196C20.4187 24.8421 20.602 24.3387 21.0308 24.2129C21.0919 24.2129 21.0919 24.15 21.1529 24.15C21.52 24.0242 22.0093 24.2129 22.1321 24.6533C22.2542 25.0308 22.0704 25.5342 21.6422 25.66H21.5811C21.52 25.66 21.459 25.7229 21.3362 25.7229Z" fill="black"/>
<path d="M21.0312 25.8557C20.7252 25.8557 20.4803 25.667 20.3581 25.4153C20.1742 25.0378 20.297 24.5345 20.7252 24.3457C20.7863 24.3457 20.7863 24.2828 20.8474 24.2828C21.2145 24.0941 21.7043 24.2828 21.8876 24.6603C22.0708 25.0378 21.8876 25.5411 21.5205 25.7299H21.4594C21.2756 25.7928 21.1534 25.8557 21.0312 25.8557Z" fill="black"/>
<path d="M20.4189 26.2307C20.1739 26.2307 19.929 26.1049 19.8068 25.9161C19.5622 25.5386 19.6236 25.0982 19.9907 24.8466C20.0518 24.7836 20.1128 24.7207 20.1739 24.7207C20.1739 24.7207 20.235 24.6578 20.2967 24.6578C20.6638 24.4062 21.1531 24.532 21.3363 24.9095C21.5813 25.287 21.4591 25.7903 21.092 25.979C21.092 25.979 21.0309 25.979 21.0309 26.042C20.9692 26.1049 20.9081 26.1049 20.9081 26.1049C20.786 26.1678 20.6021 26.2307 20.4189 26.2307Z" fill="black"/>
<path d="M20.2341 26.4221C19.9898 26.4221 19.8059 26.2963 19.6228 26.1075C19.378 25.793 19.378 25.2896 19.7449 24.9751C19.8059 24.9121 19.8059 24.9121 19.867 24.8492C20.2341 24.5976 20.6629 24.6605 20.9683 24.9751C21.2744 25.2896 21.1522 25.793 20.8462 26.1075L20.7851 26.1705C20.5401 26.3592 20.3569 26.4221 20.2341 26.4221Z" fill="black"/>
<path d="M20.1129 26.4807C19.929 26.4807 19.6847 26.4178 19.5622 26.229C19.2566 25.9145 19.3178 25.4111 19.6237 25.0966C19.6847 25.0336 19.6847 25.0336 19.7458 24.9707C20.0518 24.7191 20.5411 24.7191 20.8471 25.0966C21.092 25.4111 21.092 25.9145 20.7249 26.229L20.6638 26.292C20.48 26.4178 20.2967 26.4807 20.1129 26.4807Z" fill="black"/>
<path d="M19.7457 26.8635C19.5622 26.8635 19.3789 26.8006 19.2565 26.6748C18.9506 26.3602 18.8894 25.8569 19.1951 25.5423C19.2565 25.4794 19.2565 25.4794 19.3177 25.4165C19.3789 25.3535 19.3789 25.3535 19.4401 25.2906C19.501 25.2277 19.5622 25.2277 19.5622 25.1648C19.8679 24.8502 20.3578 24.9131 20.6638 25.2277C20.9692 25.5423 20.9081 26.0456 20.6021 26.3602L20.541 26.4231L20.4799 26.486C20.4189 26.5489 20.4189 26.5489 20.4189 26.6119C20.1739 26.8006 19.929 26.8635 19.7457 26.8635Z" fill="black"/>
<path d="M19.6232 26.9885C19.4397 26.9885 19.2561 26.9256 19.1335 26.7998C18.8278 26.5481 18.7666 26.0448 19.0114 25.6673C19.0726 25.6044 19.0726 25.5415 19.1335 25.5415C19.4397 25.2269 19.9286 25.164 20.2346 25.4785C20.5406 25.7931 20.6017 26.2965 20.2963 26.611L20.2346 26.6739C20.0514 26.8627 19.8675 26.9885 19.6232 26.9885Z" fill="black"/>
<path d="M19.4402 27.2385C19.2567 27.2385 19.134 27.1756 19.0119 27.1127C18.6448 26.861 18.5839 26.3577 18.8284 26.0431C18.8895 25.9802 18.8895 25.9173 18.9507 25.9173C19.0119 25.8544 19.0119 25.7915 19.0731 25.7915C19.3179 25.4769 19.807 25.414 20.1741 25.6656C20.4801 25.9173 20.5412 26.4206 20.2969 26.7981C20.2969 26.7981 20.2352 26.861 20.2352 26.9239C20.2352 26.9869 20.1741 26.9869 20.1741 27.0498C19.9291 27.1127 19.6848 27.2385 19.4402 27.2385Z" fill="black"/>
<path d="M19.9283 27.1135L19.2558 26.6731L18.583 26.2327C18.583 26.1698 18.644 26.1698 18.644 26.1069C18.7051 26.044 18.7051 25.981 18.7663 25.9181C19.0111 25.5406 19.5003 25.4777 19.8061 25.7294C20.1732 25.981 20.2343 26.4844 19.99 26.7989C19.99 26.8619 19.9283 26.8619 19.9283 26.9248C19.99 27.0506 19.9283 27.1135 19.9283 27.1135Z" fill="black"/>
<path d="M19.1947 27.676C19.0726 27.676 18.9502 27.6131 18.8279 27.5502C18.4607 27.3614 18.3384 26.8581 18.5217 26.4806C18.5217 26.4177 18.5834 26.4177 18.5834 26.3548C18.7667 25.9773 19.2562 25.8515 19.6233 26.1031C19.9903 26.2919 20.1125 26.7952 19.8675 27.1727L19.8065 27.2356C19.7454 27.4873 19.4397 27.676 19.1947 27.676Z" fill="black"/>
<path d="M19.1328 27.7424C19.0107 27.7424 18.8883 27.7424 18.7659 27.6795C18.3988 27.4908 18.2154 26.9874 18.46 26.6099C18.46 26.547 18.5209 26.547 18.5209 26.4841C18.7047 26.1066 19.194 25.9808 19.5611 26.1695C19.9279 26.3583 20.0507 26.8616 19.8668 27.2391L19.8057 27.302C19.6836 27.6166 19.439 27.7424 19.1328 27.7424Z" fill="black"/>
<path d="M19.0113 28.1174C18.8889 28.1174 18.8277 28.1174 18.7053 28.0545C18.3382 27.8658 18.1547 27.4254 18.277 27.0479C18.277 26.9849 18.3382 26.922 18.3382 26.922C18.5215 26.5445 18.9501 26.3558 19.3784 26.5445C19.7452 26.7333 19.9285 27.1737 19.7452 27.6141C19.7452 27.677 19.7452 27.677 19.6841 27.7399C19.5617 27.9287 19.3172 28.1174 19.0113 28.1174Z" fill="black"/>
<path d="M18.7054 28.2424C18.5833 28.2424 18.5216 28.2424 18.3995 28.1795C17.4819 27.8021 16.6865 27.2988 16.0135 26.5439L13.9948 24.468C13.8721 24.3422 13.75 24.0906 13.75 23.9018C13.75 23.7131 13.8112 23.5244 13.9948 23.3357L22.8043 14.4029C22.9271 14.2771 23.1103 14.1512 23.3553 14.1512C23.7834 14.1512 24.1499 14.5287 24.1499 14.9061C24.1499 15.0949 24.0889 15.2836 23.9056 15.4723L15.6463 23.9648L17.1146 25.4745C17.6043 25.9778 18.1547 26.3552 18.8278 26.6698H18.889C19.3173 26.6698 19.6842 26.9843 19.6842 27.4246C19.6842 27.865 19.3785 28.2424 19.0114 28.2424C18.9502 28.2424 18.889 28.2424 18.8278 28.2424C18.7666 28.2424 18.7054 28.2424 18.7054 28.2424Z" fill="black"/>
<path d="M25.68 26.4807C25.4961 26.4807 25.3129 26.4178 25.1901 26.292C24.8847 25.9775 24.823 25.5371 25.129 25.1597C27.0256 22.9579 26.9035 19.5609 24.8847 17.485L22.8043 15.472C22.4988 15.1574 22.4988 14.6542 22.8043 14.3397C23.1103 14.0251 23.5995 14.0251 23.9056 14.3397L25.9243 16.4156C28.494 19.0577 28.6773 23.3983 26.2303 26.2291C26.1082 26.4178 25.9243 26.4807 25.68 26.4807Z" fill="black"/>
<path d="M25.6806 26.4807C25.4967 26.4807 25.3134 26.4178 25.1907 26.292C25.0074 26.1661 24.8236 25.9774 24.6403 25.8516C24.5792 25.8516 24.5792 25.7886 24.5176 25.7886C24.4565 25.7257 24.3954 25.7257 24.3343 25.6628L24.2732 25.5999C23.9061 25.4111 23.7223 24.9707 23.9061 24.5932C24.0894 24.2157 24.5176 24.027 24.8853 24.2157L24.9463 24.2787C25.0685 24.3416 25.1907 24.4045 25.2524 24.4045C25.3134 24.4674 25.3745 24.4674 25.4356 24.5303C25.7416 24.7191 25.9866 24.9078 26.2309 25.0966C26.4148 25.2224 26.5369 25.4741 26.5369 25.7257C26.5369 25.9145 26.4758 26.1661 26.292 26.292C26.0477 26.4178 25.8638 26.4807 25.6806 26.4807Z" fill="black"/>
<path d="M24.5167 25.7229C24.3945 25.7229 24.3334 25.7229 24.2112 25.66H24.1496C24.0885 25.66 24.0885 25.5971 24.0274 25.5971C23.5992 25.4712 23.416 25.0308 23.5381 24.5904C23.6603 24.15 24.0885 23.9613 24.5167 24.0871C24.5784 24.0871 24.6394 24.15 24.7005 24.15C24.7616 24.15 24.7616 24.15 24.8227 24.2129C25.1898 24.4017 25.3736 24.8421 25.2515 25.2196C25.0676 25.5342 24.7616 25.7229 24.5167 25.7229Z" fill="black"/>
<path d="M24.151 25.5979C24.0899 25.5979 23.9678 25.5979 23.9067 25.535C23.9067 25.535 23.9067 25.535 23.8456 25.535C23.4174 25.4092 23.2335 24.9687 23.2946 24.5912C23.4174 24.1508 23.8456 23.9621 24.2127 24.025H24.2738C24.702 24.1508 24.8858 24.5912 24.763 25.0317C24.763 25.4092 24.457 25.5979 24.151 25.5979Z" fill="black"/>
<path d="M23.9666 25.5432C23.9055 25.5432 23.8445 25.5432 23.7834 25.5432H23.7217L23.9055 24.7882L24.0888 24.0332H24.1499C24.5787 24.1591 24.823 24.5995 24.7008 24.977C24.5787 25.3545 24.2726 25.5432 23.9666 25.5432Z" fill="black"/>
<path d="M23.9061 25.5432C23.845 25.5432 23.7222 25.5432 23.6611 25.4803L23.845 25.0399L24.1504 24.0332C24.5792 24.1591 24.7624 24.5995 24.6403 25.0399C24.5175 25.3545 24.2121 25.5432 23.9061 25.5432Z" fill="black"/>
<path d="M23.8442 25.5432C23.7831 25.5432 23.7214 25.5432 23.6603 25.5432H23.5992C23.1711 25.4803 22.9267 25.0399 22.9878 24.5995C23.0489 24.1591 23.4771 23.9074 23.9053 23.9703H23.9663C24.3945 24.0332 24.6395 24.4736 24.5784 24.9141C24.5167 25.2915 24.1496 25.5432 23.8442 25.5432Z" fill="black"/>
<path d="M23.5389 25.4768C23.4779 25.4768 23.4168 25.4768 23.4168 25.4768H23.3557C22.9275 25.4139 22.6215 25.0364 22.6826 24.596C22.7437 24.1556 23.1108 23.841 23.5389 23.9039H23.6C23.6611 23.9039 23.6611 23.9039 23.7222 23.9039C24.1504 23.9668 24.3953 24.4072 24.3342 24.8476C24.2121 25.2251 23.9061 25.4768 23.5389 25.4768Z" fill="black"/>
<path d="M23.2938 25.4143C23.2327 25.4143 23.2327 25.4143 23.1716 25.4143C22.7435 25.3514 22.4374 24.9739 22.4991 24.5335C22.5602 24.0931 22.9273 23.7785 23.3555 23.8414C23.7837 23.9043 24.0891 24.2818 24.028 24.7222C24.028 25.1626 23.6609 25.4143 23.2938 25.4143Z" fill="black"/>
<path d="M23.1107 25.4143C23.0496 25.4143 23.0496 25.4143 23.0496 25.4143H22.9885C22.5603 25.3514 22.2543 24.9739 22.3154 24.5335C22.3765 24.0931 22.7436 23.8414 23.1107 23.8414H23.1718C23.5999 23.9043 23.906 24.2818 23.8449 24.7222C23.8449 25.0997 23.5389 25.4143 23.1107 25.4143Z" fill="black"/>
<path d="M29.4128 38.0002H7.38855C5.1863 38.0002 3.41211 36.1759 3.41211 33.9113C3.41211 31.6466 5.1863 29.8223 7.38855 29.8223C7.44975 29.8223 7.51089 29.8223 7.63354 29.8223C8.30612 28.1238 9.9579 26.9915 11.7933 26.9915C13.3842 26.9915 14.8524 27.8722 15.7088 29.2562C16.0761 29.5078 16.3818 29.7594 16.6878 30.074H16.7487C17.1159 29.7594 17.4832 29.5707 17.9115 29.4449C17.9115 29.2562 17.9115 29.1303 17.9115 28.9416C17.9115 28.3126 18.0336 27.7464 18.2174 27.1802C18.2174 27.1173 18.2784 27.0544 18.2784 26.9915C18.2784 26.9286 18.3396 26.8657 18.3396 26.8657C18.3396 26.8028 18.4008 26.7399 18.4619 26.6141C18.4619 26.5512 18.5229 26.5512 18.5229 26.4883C18.5229 26.4883 18.5229 26.4883 18.5229 26.4253L18.5846 26.3624C18.5846 26.3624 18.5846 26.2995 18.6455 26.2995C18.6455 26.2366 18.7067 26.2366 18.7067 26.1737C18.7067 26.1108 18.7679 26.0479 18.8291 26.0479C18.89 25.985 18.89 25.9221 18.9514 25.9221C19.0126 25.8592 19.0126 25.8592 19.0738 25.7963C19.1347 25.7334 19.1347 25.7334 19.1959 25.6705C19.1959 25.6705 19.1959 25.6705 19.1959 25.6076C19.2574 25.5446 19.2574 25.5446 19.3186 25.4817C19.3797 25.4188 19.3797 25.4188 19.4409 25.3559C19.5019 25.293 19.5019 25.293 19.563 25.2301C19.563 25.2301 19.563 25.2301 19.6245 25.1672C19.6855 25.1672 19.6855 25.1043 19.7466 25.1043C19.7466 25.1043 19.7466 25.1043 19.8077 25.1043C19.8688 25.1043 19.8688 25.0414 19.9298 25.0414C19.9915 24.9785 20.0526 24.9785 20.1137 24.9156C20.1748 24.8527 20.2359 24.7898 20.2969 24.7898L20.3586 24.7269C20.4808 24.6639 20.6647 24.5381 20.7868 24.4752C20.7868 24.4752 20.8479 24.4752 20.909 24.4123C20.9701 24.3494 21.0928 24.3494 21.1539 24.2865H21.215C21.2761 24.2865 21.2761 24.2865 21.3372 24.2236C21.3989 24.2236 21.521 24.1607 21.5821 24.1607H21.6432C21.7043 24.1607 21.7043 24.1607 21.766 24.1607C21.8881 24.0978 22.0103 24.0978 22.1331 24.0978C22.1941 24.0978 22.1941 24.0978 22.2552 24.0978H22.3163H22.3774H22.4385H22.5002C22.5613 24.0978 22.5612 24.0978 22.6223 24.0978C22.6834 24.0978 22.6834 24.0978 22.7445 24.0978C22.8056 24.0978 22.8056 24.0978 22.8667 24.0978C23.2949 24.0978 23.662 24.4752 23.662 24.9156C23.662 25.3559 23.2949 25.7334 22.8667 25.7334C22.8056 25.7334 22.8056 25.7334 22.7445 25.7334H22.6834C22.6834 25.7334 22.6223 25.7334 22.5613 25.7334H22.5002C22.5002 25.7334 22.5002 25.7334 22.4385 25.7334H22.3774C22.3774 25.7334 22.3774 25.7334 22.3163 25.7334H22.2552C22.1941 25.7334 22.0714 25.7334 22.0103 25.7963H21.9492H21.8881C21.827 25.7963 21.766 25.8592 21.7049 25.8592H21.6432C21.6432 25.8592 21.6432 25.8592 21.5821 25.8592C21.521 25.8592 21.4599 25.9221 21.4599 25.9221C21.4599 25.9221 21.3989 25.9221 21.3989 25.985C21.2761 26.0479 21.215 26.1108 21.0928 26.1737H21.0318C20.9701 26.1737 20.9701 26.2366 20.909 26.2366C20.8479 26.2366 20.8479 26.2995 20.7868 26.2995L20.7257 26.3624L20.6647 26.4253L20.603 26.4883L20.5419 26.5512C20.4808 26.6141 20.4808 26.6141 20.4808 26.6141L20.4197 26.677L20.3586 26.7399C20.3586 26.7399 20.2976 26.8028 20.2976 26.8657C20.2976 26.9286 20.2359 26.9286 20.2359 26.9915C20.2359 26.9915 20.2359 27.0544 20.1748 27.0544V27.1173C20.1748 27.1173 20.1748 27.1802 20.1137 27.1802L20.0526 27.2431C20.0526 27.306 19.9915 27.369 19.9915 27.369C19.9915 27.4319 19.9305 27.4319 19.9305 27.4948C19.9305 27.5577 19.8688 27.5577 19.8688 27.6206C19.7466 27.998 19.6855 28.4384 19.6855 28.8158C19.6855 29.1303 19.7466 29.4449 19.8077 29.7594C19.8688 30.011 19.8077 30.2627 19.6855 30.4514C19.5019 30.6401 19.2574 30.7659 19.0126 30.7659C18.9514 30.7659 18.9514 30.7659 18.8902 30.7659C18.5234 30.7659 18.156 30.8917 17.8503 31.1434C17.7889 31.2063 17.6665 31.2692 17.5444 31.3321C17.3606 31.395 17.1772 31.4579 17.0549 31.5837C16.6878 31.7724 16.2594 31.7095 16.0761 31.3321C15.8314 30.9547 15.4643 30.5772 15.0362 30.3256C14.9136 30.2627 14.7912 30.1369 14.73 30.011C14.1793 29.0045 13.1394 28.3755 12.0383 28.3755C10.631 28.3755 9.40773 29.3191 9.10178 30.703C8.97919 31.1434 8.61202 31.395 8.18371 31.2692C7.75565 31.395 7.5721 31.395 7.38855 31.395C6.04267 31.395 4.94154 32.5273 4.94154 33.9113C4.94154 35.2952 6.04267 36.4276 7.38855 36.4276H29.4128C31.1262 36.4276 32.4718 35.0436 32.4718 33.2822C32.4718 32.2128 31.9215 31.2063 31.0651 30.6401C30.7591 30.4514 30.6369 30.011 30.7591 29.6965C30.8812 29.382 30.9423 29.0674 30.9423 28.7529C30.9423 27.369 29.8416 26.2366 28.4954 26.2366C27.8833 26.2366 27.2719 26.4883 26.7826 26.9286C26.5988 27.0544 26.4155 27.1802 26.1706 27.1173C25.9257 27.1173 25.7424 26.9915 25.6202 26.8028L25.5585 26.7399L25.4975 26.677C25.2531 26.3624 25.2531 25.8592 25.6202 25.5446C25.8035 25.4188 25.9873 25.3559 26.1706 25.3559C26.8437 24.8527 27.639 24.601 28.4343 24.601C30.6369 24.601 32.4107 26.4253 32.4107 28.69C32.4107 29.0045 32.3496 29.3191 32.2886 29.6336C33.3282 30.5143 33.9402 31.8354 33.9402 33.2193C34.0013 35.8614 31.9215 38.0002 29.4128 38.0002Z" fill="black"/>
<path d="M23.0502 25.4143C22.9891 25.4143 22.9891 25.4143 23.0502 25.4143C22.5609 25.4143 22.2549 25.0368 22.2549 24.5964C22.2549 24.156 22.622 23.7785 23.0502 23.7785H23.1113C23.5394 23.7785 23.8455 24.156 23.8455 24.5964C23.7844 25.0997 23.4173 25.4143 23.0502 25.4143Z" fill="black"/>
<path d="M23.1107 25.4143C23.0496 25.4143 23.0496 25.4143 23.0496 25.4143C23.0496 25.4143 23.0496 25.4143 22.9885 25.4143C22.5603 25.3514 22.2543 24.9739 22.3154 24.5964C22.3765 24.156 22.6825 23.8414 23.1107 23.9043C23.5389 23.9043 23.8449 24.2818 23.8449 24.6593C23.906 25.0997 23.5389 25.4143 23.1107 25.4143Z" fill="black"/>
<path d="M23.2328 25.4143H23.1717C22.7435 25.4143 22.4375 25.0368 22.4375 24.5964C22.4375 24.156 22.8046 23.8414 23.2328 23.8414H23.2939C23.7221 23.9043 24.0281 24.2818 23.967 24.7222C23.967 25.0997 23.5999 25.4143 23.2328 25.4143Z" fill="black"/>
<path d="M23.2932 25.4143H23.2321C22.865 25.3514 22.5596 25.0368 22.5596 24.6593C22.5596 24.2189 22.9267 23.8414 23.3549 23.8414H23.4159C23.477 23.8414 23.5381 23.8414 23.5992 23.9043C23.9052 24.0302 24.1495 24.2818 24.1495 24.6593C24.0274 25.0997 23.7214 25.4143 23.2932 25.4143Z" fill="black"/>
<path d="M23.3553 25.4143H23.2936C22.8654 25.3514 22.56 24.9739 22.6211 24.5964C22.6821 24.156 23.0493 23.8414 23.4164 23.9043H23.4774C23.9056 23.9672 24.2116 24.3447 24.15 24.7851C24.0889 25.1626 23.7218 25.4143 23.3553 25.4143Z" fill="black"/>
<path d="M23.6005 25.4768C23.5394 25.4768 23.4783 25.4768 23.4783 25.4768H23.4172C22.989 25.4139 22.7441 24.9735 22.8052 24.5331C22.8663 24.0927 23.2944 23.841 23.7226 23.9039H23.7843C24.2125 23.9668 24.4568 24.4072 24.3957 24.8476C24.3347 25.2251 23.9676 25.4768 23.6005 25.4768Z" fill="black"/>
<path d="M23.7221 25.4768C23.661 25.4768 23.5999 25.4768 23.5388 25.4768H23.4778C23.0496 25.4139 22.8046 24.9735 22.8657 24.596C22.9274 24.1556 23.3556 23.9039 23.7221 23.9668C23.7838 23.9668 23.7838 23.9668 23.8449 23.9668C24.273 24.0297 24.5174 24.4702 24.4563 24.9106C24.3952 25.2251 24.0892 25.4768 23.7221 25.4768Z" fill="black"/>
<path d="M23.845 25.5432C23.7839 25.5432 23.7222 25.5432 23.6611 25.5432L23.9671 23.9703H24.0282C24.4564 24.0961 24.7014 24.4736 24.5792 24.9141C24.4564 25.2915 24.1504 25.5432 23.845 25.5432Z" fill="black"/>
<path d="M23.9056 25.5432C23.8446 25.5432 23.7835 25.5432 23.7218 25.5432C23.3553 25.4803 23.0493 25.0399 23.1103 24.6624C23.1714 24.222 23.5996 23.9703 23.9667 24.0332H24.0278H24.0889C24.5171 24.1591 24.7009 24.5995 24.6398 24.977C24.5171 25.2915 24.2117 25.5432 23.9056 25.5432Z" fill="black"/>
<path d="M24.0279 25.5979C23.9668 25.5979 23.9057 25.5979 23.8446 25.5979H23.7835C23.3553 25.4721 23.1104 25.0317 23.2326 24.6542C23.3553 24.2137 23.7835 23.9621 24.15 24.0879H24.2117C24.6399 24.2137 24.8848 24.6542 24.7621 25.0317C24.701 25.3462 24.3339 25.5979 24.0279 25.5979Z" fill="black"/>
<path d="M24.2116 25.6643C24.1499 25.6643 24.0278 25.6643 23.9667 25.6014C23.9667 25.6014 23.9667 25.6014 23.9056 25.6014H23.8445C23.4774 25.4756 23.2325 25.0351 23.3552 24.6577C23.4774 24.2172 23.9056 23.9656 24.2727 24.0914H24.3338C24.3949 24.0914 24.3949 24.0914 24.4559 24.1543C24.823 24.2802 25.068 24.7206 24.9458 25.161C24.823 25.4126 24.517 25.6643 24.2116 25.6643Z" fill="black"/>
<path d="M24.2728 25.6643C24.2117 25.6643 24.089 25.6643 24.0279 25.6014C23.6608 25.4756 23.4164 25.0351 23.5386 24.5947C23.6608 24.1543 24.089 23.9656 24.5172 24.0914C24.5172 24.0914 24.5788 24.0914 24.5788 24.1543C24.9459 24.3431 25.1292 24.7835 24.9459 25.2239C24.8232 25.4756 24.5171 25.6643 24.2728 25.6643Z" fill="black"/>
<path d="M24.394 25.7229C24.3329 25.7229 24.2108 25.7229 24.1491 25.66H24.088C24.088 25.66 24.088 25.66 24.0269 25.66C24.0269 25.66 24.0269 25.66 23.9658 25.66C23.9658 25.66 23.9658 25.66 24.0269 25.66L24.2718 24.905L24.4551 24.3387L24.5162 24.15H24.5779C24.5779 24.15 24.5779 24.15 24.6389 24.15C24.6389 24.15 24.6389 24.15 24.7 24.15C25.0671 24.3387 25.251 24.7792 25.1282 25.1567C25.0061 25.5342 24.7 25.7229 24.394 25.7229Z" fill="black"/>
<path d="M24.6404 25.8557C24.5177 25.8557 24.3955 25.8557 24.3344 25.7928H24.2733C24.2733 25.7928 24.2733 25.7928 24.2123 25.7928C24.2123 25.7928 24.2123 25.7928 24.1506 25.7928C23.7841 25.604 23.5391 25.1636 23.7224 24.7861C23.9062 24.4086 24.3344 24.157 24.7015 24.3457C24.7015 24.3457 24.7015 24.3457 24.7626 24.3457H24.8237H24.8854C24.9465 24.3457 24.9465 24.3457 25.0076 24.4086C25.3747 24.5974 25.5579 25.1007 25.3746 25.4782C25.2525 25.667 24.9465 25.8557 24.6404 25.8557Z" fill="black"/>
<path d="M24.8849 25.9143C24.7621 25.9143 24.64 25.9143 24.5172 25.8514C24.5172 25.8514 24.5172 25.8514 24.4561 25.8514C24.4561 25.8514 24.395 25.8514 24.395 25.7885C24.0279 25.5997 23.8447 25.0964 24.0279 24.7189C24.2118 24.3414 24.7011 24.1527 25.0682 24.3414H25.1292C25.4963 24.5302 25.6802 25.0335 25.4963 25.411C25.4353 25.7885 25.1903 25.9143 24.8849 25.9143Z" fill="black"/>
<path d="M25.0679 26.0393C24.9457 26.0393 24.823 25.9764 24.7008 25.9135C24.7008 25.9135 24.6397 25.9135 24.6397 25.8506C24.6397 25.8506 24.6397 25.8506 24.5786 25.8506C24.5786 25.8506 24.5169 25.8506 24.5169 25.7876C24.1498 25.5989 24.0277 25.0956 24.2115 24.7181C24.3948 24.3406 24.8846 24.2147 25.2518 24.4035C25.3128 24.4035 25.3128 24.4664 25.3739 24.4664C25.3739 24.4664 25.3739 24.4664 25.435 24.4664C25.435 24.4664 25.4961 24.4664 25.4961 24.5293C25.8632 24.781 25.986 25.2214 25.741 25.5989C25.6189 25.9135 25.3128 26.0393 25.0679 26.0393Z" fill="black"/>
<path d="M25.5564 26.4221C25.3731 26.4221 25.1893 26.3592 25.0671 26.2334C25.006 26.1705 24.9449 26.1705 24.9449 26.1075C24.5778 25.8559 24.5161 25.3525 24.7611 25.038C25.006 24.6605 25.4953 24.5976 25.8013 24.8492C25.8624 24.9121 25.9235 24.9751 26.0462 25.038C26.3523 25.2896 26.4133 25.793 26.1684 26.1705C25.9852 26.2963 25.8013 26.4221 25.5564 26.4221Z" fill="black"/>
<path d="M4.14522 25.413C3.71685 25.413 3.34975 25.7905 3.34975 26.2309C3.34975 26.6714 3.71685 27.0489 4.14522 27.0489C4.57352 27.0489 4.94063 26.6714 4.94063 26.2309C4.94063 25.7905 4.57352 25.413 4.14522 25.413ZM4.14522 28.5588C2.86024 28.5588 1.82031 27.4893 1.82031 26.168C1.82031 24.8468 2.86024 23.7772 4.14522 23.7772C5.42989 23.7772 6.46982 24.8468 6.46982 26.168C6.46982 27.4893 5.42989 28.5588 4.14522 28.5588Z" fill="black"/>
<path d="M31.6754 19.9404C31.2472 19.9404 30.8801 20.3179 30.8801 20.7583C30.8801 21.1987 31.2472 21.5762 31.6754 21.5762C32.1036 21.5762 32.4707 21.1987 32.4707 20.7583C32.4707 20.3179 32.1036 19.9404 31.6754 19.9404ZM31.6754 23.0862C30.3908 23.0862 29.3506 22.0166 29.3506 20.6954C29.3506 19.3741 30.3908 18.3046 31.6754 18.3046C32.9599 18.3046 34.0001 19.3741 34.0001 20.6954C34.0001 22.0166 32.9599 23.0862 31.6754 23.0862Z" fill="black"/>
<path d="M20.2344 4.96905C19.3783 4.96905 18.7052 5.66112 18.7052 6.54195C18.7052 7.42277 19.3783 8.11485 20.2344 8.11485C21.0914 8.11485 21.7645 7.42277 21.7645 6.54195C21.7645 5.66112 21.0303 4.96905 20.2344 4.96905ZM20.2344 9.68774C18.5214 9.68774 17.1758 8.30359 17.1758 6.54195C17.1758 4.7803 18.5214 3.39615 20.2344 3.39615C21.9477 3.39615 23.2934 4.7803 23.2934 6.54195C23.2934 8.30359 21.8867 9.68774 20.2344 9.68774Z" fill="black"/>
<path d="M27.0872 29.7542C26.659 29.7542 26.2919 29.3767 26.2919 28.9362C26.2919 28.1813 26.0475 27.4263 25.6194 26.7971L25.5577 26.7342L25.4966 26.6713C25.3744 26.5454 25.3133 26.4196 25.1906 26.3567L25.1295 26.2938C25.0684 26.2309 25.0073 26.2309 24.9462 26.1679C24.8851 26.105 24.7624 26.0421 24.7013 25.9792C24.7013 25.9792 24.7013 25.9792 24.6402 25.9792C24.6402 25.9792 24.5791 25.9792 24.5791 25.9163H24.518C24.4564 25.9163 24.4564 25.8534 24.3953 25.8534C24.3953 25.8534 24.3342 25.8534 24.3342 25.7904H24.2731C24.2731 25.7904 24.2731 25.7904 24.212 25.7904C24.212 25.7904 24.212 25.7904 24.1503 25.7904C24.1503 25.7904 24.1503 25.7904 24.0893 25.7904C24.0893 25.7904 24.0893 25.7904 24.0282 25.7904H23.9671H23.906C23.906 25.7904 23.906 25.7904 23.8449 25.7904C23.8449 25.7904 23.8449 25.7904 23.7838 25.7904C23.7838 25.7904 23.7838 25.7904 23.7222 25.7904H23.6611C23.6611 25.7904 23.6611 25.7904 23.6 25.7904C23.6 25.7904 23.6 25.7904 23.5389 25.7904C23.5389 25.7904 23.5389 25.7904 23.4778 25.7904C23.4778 25.7904 23.4778 25.7904 23.4167 25.7904C23.4167 25.7904 23.4167 25.7904 23.3557 25.7904C23.3557 25.7904 23.3557 25.7904 23.294 25.7904C23.294 25.7904 23.294 25.7904 23.2329 25.7904C23.1718 25.7904 23.1718 25.7904 23.1107 25.7904C22.6825 25.7904 22.3154 25.4129 22.3154 24.9725C22.3154 24.5321 22.6825 24.1546 23.1107 24.1546C23.1718 24.1546 23.1718 24.1546 23.2329 24.1546H23.294C23.294 24.1546 23.294 24.1546 23.3557 24.1546H23.4167H23.4778H23.5389H23.6H23.6611H23.7222H23.7838H23.8449H23.906H23.9671C23.9671 24.1546 23.9671 24.1546 24.0282 24.1546C24.0282 24.1546 24.0282 24.1546 24.0893 24.1546H24.1503H24.212C24.2731 24.1546 24.2731 24.1546 24.2731 24.1546H24.3342C24.3953 24.1546 24.3953 24.1546 24.4564 24.2175H24.518C24.5791 24.2175 24.5791 24.2175 24.6402 24.2805H24.7013C24.7013 24.2805 24.7013 24.2805 24.7624 24.2805C24.7624 24.2805 24.7624 24.2805 24.8235 24.2805C24.8851 24.2805 24.8851 24.3434 24.9462 24.3434C25.0073 24.3434 25.0073 24.4063 25.0684 24.4063C25.1295 24.4063 25.1906 24.4692 25.1906 24.4692C25.2523 24.4692 25.2522 24.5321 25.3133 24.5321C25.3744 24.5321 25.3744 24.595 25.4355 24.595C25.4355 24.595 25.4966 24.595 25.4966 24.658C25.6194 24.7209 25.7415 24.8467 25.8637 24.9096C25.9248 24.9725 25.9865 25.0355 26.1086 25.0984C26.1697 25.0984 26.1697 25.1613 26.2308 25.1613C26.4146 25.35 26.5368 25.4759 26.7201 25.6646C26.7201 25.6646 26.7817 25.7275 26.7817 25.7904C26.7817 25.8534 26.8428 25.8534 26.8428 25.9163C27.5153 26.7971 27.8214 27.8667 27.8214 28.9992C27.8824 29.3767 27.5153 29.7542 27.0872 29.7542Z" fill="black"/>
</svg>
