<svg width="38" height="36" viewBox="0 0 38 36" fill="none" xmlns="http://www.w3.org/2000/svg">
<path d="M35.484 0.842453C36.3871 0.842453 37.0969 1.56112 37.0969 2.47579C37.0969 3.39046 36.3871 4.10913 35.484 4.10913C34.5809 4.10913 33.8711 3.39046 33.8711 2.47579C33.8711 1.56112 34.5809 0.842453 35.484 0.842453Z" fill="#D7DEED"/>
<path d="M32.3233 5.3532C32.3233 5.87586 32.2589 6.3332 32.1294 6.7252C31.9368 7.24787 31.6141 7.7052 31.1625 8.0972C30.711 8.42387 30.13 8.61987 29.549 8.61987C29.0974 8.61987 28.6459 8.55454 28.2588 8.42387V7.96654C28.2588 7.63987 28.3232 7.3132 28.4527 6.98653C28.6459 6.46387 28.9686 5.9412 29.4202 5.61453C29.8717 5.28786 30.3883 5.09186 30.9686 5.09186C31.3551 5.15719 31.8717 5.22253 32.3233 5.3532Z" fill="#FCD884"/>
<path d="M27.8707 11.7576C28.0639 12.3454 28.1934 12.9333 28.129 13.5865C27.5486 13.7824 26.9032 13.9131 26.3228 13.8478C25.5486 13.8478 24.7743 13.5865 24.1933 13.1293C23.613 12.672 23.1614 12.0842 22.9031 11.3003C22.7099 10.7125 22.5811 10.1246 22.5811 9.4061C23.2252 9.21015 23.8706 9.07951 24.4516 9.14483C25.2259 9.21015 25.9351 9.4061 26.5154 9.86333C27.1608 10.3859 27.5486 11.0391 27.8707 11.7576Z" fill="#FCD884"/>
<path d="M33.7419 11.1726C33.7419 11.8258 33.6775 12.479 33.4192 13.0668C33.1609 13.7853 32.7094 14.4385 32.1284 14.8958C31.4842 15.353 30.7737 15.6143 29.9995 15.6143C29.4191 15.6143 28.8388 15.5489 28.1934 15.353V14.8304C28.2578 14.3732 28.3222 13.916 28.4517 13.5241C28.7093 12.8056 29.1609 12.1524 29.7419 11.6952C30.3222 11.2379 31.032 11.042 31.8063 10.9766C32.4511 10.846 33.0965 10.9766 33.7419 11.1726Z" fill="#EABF6A"/>
<path d="M27.9361 5.94948C28.0649 6.34148 28.13 6.79881 28.13 7.25615C27.6784 7.38681 27.2269 7.45215 26.8391 7.45215C26.2587 7.45215 25.7428 7.25615 25.2913 6.92948C24.8397 6.60281 24.517 6.14548 24.3231 5.62281C24.1943 5.23081 24.1299 4.77347 24.1299 4.25081C24.5814 4.12014 25.033 4.0548 25.4845 4.0548C26.0011 4.0548 26.5164 4.25081 26.9679 4.57747C27.4201 4.96947 27.7428 5.42681 27.9361 5.94948Z" fill="#EABF6A"/>
<path d="M15.4199 5.3532C15.4199 5.87586 15.3549 6.3332 15.2261 6.7252C15.0328 7.24787 14.7101 7.7052 14.2586 8.0972C13.807 8.42387 13.2267 8.61987 12.645 8.61987C12.1935 8.61987 11.742 8.55454 11.3555 8.42387V7.96654C11.3555 7.63987 11.4199 7.3132 11.5487 6.98653C11.742 6.46387 12.0647 5.9412 12.5162 5.61453C12.9678 5.28786 13.4843 5.09186 14.0647 5.09186C14.4518 5.15719 14.9034 5.22253 15.4199 5.3532Z" fill="#EABF6A"/>
<path d="M10.9036 11.7576C11.0974 12.3454 11.2263 12.9333 11.1618 13.5865C10.5815 13.7824 9.93605 13.9131 9.35505 13.8478C8.5808 13.8478 7.8072 13.5865 7.22619 13.1293C6.64583 12.672 6.19429 12.0842 5.93599 11.3003C5.74211 10.7125 5.61328 10.1246 5.61328 9.4061C6.2587 9.21015 6.90414 9.07951 7.48451 9.14483C8.25875 9.21015 8.96856 9.4061 9.54893 9.86333C10.1943 10.3859 10.6459 11.0391 10.9036 11.7576Z" fill="#EABF6A"/>
<path d="M16.7741 11.1726C16.7741 11.8258 16.7097 12.479 16.4514 13.0668C16.1938 13.7853 15.7416 14.4385 15.1612 14.8958C14.5158 15.353 13.8066 15.6143 13.0324 15.6143C12.452 15.6143 11.871 15.5489 11.2256 15.353V14.8304C11.29 14.3732 11.355 13.916 11.4839 13.5241C11.7415 12.8056 12.1931 12.1524 12.7747 11.6952C13.3551 11.2379 14.0643 11.042 14.8385 10.9766C15.5484 10.846 16.1938 10.9766 16.7741 11.1726Z" fill="#FCD884"/>
<path d="M10.968 5.94948C11.0968 6.34148 11.1612 6.79881 11.1612 7.25615C10.7096 7.38681 10.2581 7.45215 9.87098 7.45215C9.29062 7.45215 8.77404 7.25615 8.3225 6.92948C7.87096 6.60281 7.54826 6.14548 7.35502 5.62281C7.22555 5.23081 7.16113 4.77347 7.16113 4.25081C7.61267 4.12014 8.06485 4.0548 8.51638 4.0548C9.0317 4.0548 9.54827 4.25081 9.99981 4.57747C10.4514 4.96947 10.7741 5.42681 10.968 5.94948Z" fill="#FCD884"/>
<path d="M33.8926 17.1473L34.7076 15.7381L36.0999 16.5639L35.2848 17.9731L33.8926 17.1473Z" fill="black"/>
<path d="M17.9531 4.69843L18.7682 3.28853L20.1598 4.11368L19.3447 5.52295L17.9531 4.69843Z" fill="black"/>
<path d="M5.07715 16.9637L5.89285 15.5545L7.28445 16.3797L6.4694 17.7896L5.07715 16.9637Z" fill="black"/>
<path d="M28.1941 23.71C27.7426 23.71 27.3555 23.3181 27.3555 22.8608V3.26529C27.3555 2.80806 27.7426 2.41615 28.1941 2.41615C28.6457 2.41615 28.9684 2.80806 28.9684 3.26529V22.8608C29.0328 23.3181 28.6457 23.71 28.1941 23.71Z" fill="black"/>
<path d="M29.0328 7.77291C29.1616 7.77291 29.3555 7.77291 29.4843 7.77291C29.9365 7.77291 30.323 7.64228 30.6457 7.381C30.9684 7.11973 31.2261 6.79314 31.3549 6.40122C31.4199 6.27059 31.485 6.07463 31.485 5.944C31.2911 5.944 31.1623 5.87868 30.9684 5.944C30.5169 5.944 30.1942 6.07463 29.8715 6.33591C29.5488 6.59718 29.2911 6.92377 29.1616 7.31568C29.0972 7.51164 29.0972 7.64228 29.0328 7.77291ZM29.4199 9.47119C28.904 9.47119 28.4524 9.40587 27.9358 9.20992C27.6131 9.07928 27.4199 8.81801 27.3555 8.4261C27.3555 8.23014 27.3555 8.0995 27.3555 7.90355C27.3555 7.51164 27.4843 7.11973 27.6131 6.72782C27.8714 6.00931 28.3229 5.42145 28.904 4.96422C29.4843 4.57231 30.1297 4.31104 30.9034 4.24572C31.485 4.24572 32.0003 4.31104 32.5813 4.50699C32.9034 4.63763 33.0973 4.8989 33.0973 5.29081C33.0973 5.87868 33.0328 6.46654 32.8396 6.98909C32.5813 7.70759 32.1291 8.29546 31.5488 8.68737C30.9684 9.1446 30.2586 9.34055 29.4843 9.40587C29.4843 9.47119 29.4843 9.47119 29.4199 9.47119Z" fill="black"/>
<path d="M24.9674 4.96441C24.9674 5.09505 25.0318 5.29101 25.0962 5.42164C25.2256 5.81355 25.4833 6.14015 25.7416 6.3361C26.0637 6.59737 26.4514 6.66269 26.8379 6.72801C26.9668 6.72801 27.0969 6.72801 27.2895 6.72801C27.2895 6.59737 27.2257 6.46674 27.1606 6.27078C27.0318 5.87887 26.7741 5.55228 26.5152 5.35632C26.1931 5.16037 25.8711 5.02973 25.4833 4.96441C25.2901 4.89909 25.0962 4.96441 24.9674 4.96441ZM26.903 8.29565C26.8379 8.29565 26.8379 8.29565 26.7741 8.29565C25.9999 8.29565 25.3545 8.03438 24.7741 7.64247C24.1931 7.25056 23.806 6.66269 23.5477 5.94419C23.3545 5.42164 23.29 4.89909 23.29 4.31123C23.29 3.98464 23.4839 3.65804 23.806 3.52741C24.387 3.33145 24.903 3.26613 25.4833 3.26613C26.1932 3.33145 26.8379 3.52741 27.4189 3.91932C27.9999 4.31123 28.3864 4.89909 28.6447 5.6176C28.8386 6.14015 28.903 6.66269 28.903 7.25056C28.903 7.57715 28.7091 7.90374 28.3864 8.03438C27.8705 8.23034 27.4189 8.29565 26.903 8.29565Z" fill="black"/>
<path d="M29.0328 14.6317C29.3555 14.697 29.6782 14.697 30.0003 14.697C30.6457 14.697 31.2261 14.501 31.6776 14.1091C32.1291 13.7825 32.5169 13.26 32.7101 12.6721C32.8396 12.3455 32.9034 12.0189 32.9034 11.6923C32.5813 11.627 32.2586 11.5617 31.8715 11.627C31.2261 11.627 30.7108 11.823 30.2586 12.2149C29.807 12.5415 29.4199 13.064 29.2267 13.6519C29.1616 13.9785 29.0328 14.3051 29.0328 14.6317ZM29.8715 16.3953C29.2267 16.3953 28.5813 16.2646 27.9358 16.0687C27.6131 15.938 27.4199 15.6768 27.3555 15.2849C27.3555 15.0889 27.3555 14.8929 27.3555 14.697C27.4199 14.1744 27.4843 13.6519 27.6782 13.1293C28.0009 12.2149 28.5813 11.4311 29.2911 10.9085C30.0003 10.386 30.8396 10.0594 31.8071 10.0594C31.8715 10.0594 32.0003 10.0594 32.0654 10.0594C32.7102 10.0594 33.3556 10.19 34.0003 10.386C34.3231 10.5166 34.5163 10.7779 34.5813 11.1698C34.5813 11.9536 34.4525 12.6721 34.2586 13.3253C33.9359 14.2398 33.3556 14.9583 32.6457 15.4808C31.9366 16.0034 31.0328 16.3299 30.0653 16.3299C29.9365 16.3299 29.9365 16.3953 29.8715 16.3953Z" fill="black"/>
<path d="M23.42 10.1253C23.485 10.4519 23.5488 10.7785 23.6139 11.1051C23.8071 11.693 24.1942 12.1502 24.6458 12.5421C25.0973 12.8687 25.6783 13.0647 26.3237 13.13C26.3875 13.13 26.3875 13.13 26.4526 13.13C26.7102 13.13 27.0329 13.13 27.2906 13.0647C27.2268 12.7381 27.1618 12.4115 27.098 12.0849C26.9041 11.497 26.5163 10.9745 26.0648 10.6479C25.6132 10.3213 25.0329 10.1253 24.4525 10.06C24.0654 10.06 23.7427 10.06 23.42 10.1253ZM26.4526 14.7629C26.3875 14.7629 26.3237 14.7629 26.3237 14.7629C25.3556 14.7629 24.4525 14.4363 23.7427 13.9138C23.0335 13.3913 22.4518 12.6074 22.1304 11.7583C21.8715 11.1051 21.7426 10.3866 21.8077 9.60278C21.8077 9.27619 22.0003 8.9496 22.3881 8.81896C23.0973 8.55769 23.8715 8.42705 24.5814 8.49237C25.4844 8.55769 26.3875 8.81896 27.098 9.34151C27.8072 9.86406 28.3875 10.6479 28.7102 11.5623C28.9685 12.2155 29.033 12.934 29.033 13.7178C29.033 14.0444 28.8397 14.371 28.517 14.5017C27.7428 14.6323 27.098 14.7629 26.4526 14.7629Z" fill="black"/>
<path d="M11.2898 23.71C10.8383 23.71 10.4512 23.3181 10.4512 22.8608V3.26529C10.4512 2.80806 10.8383 2.41615 11.2898 2.41615C11.7414 2.41615 12.1291 2.80806 12.1291 3.26529V22.8608C12.0641 23.3181 11.7414 23.71 11.2898 23.71Z" fill="black"/>
<path d="M12.1291 7.77291C12.258 7.77291 12.4519 7.77291 12.5807 7.77291C13.0322 7.77291 13.4187 7.64228 13.7414 7.381C14.0641 7.11973 14.3224 6.79314 14.4513 6.40122C14.5157 6.27059 14.5807 6.07463 14.5807 5.944C14.3868 5.944 14.258 5.87868 14.0641 5.944C13.6126 5.944 13.2899 6.07463 12.9672 6.33591C12.6445 6.59718 12.3868 6.92377 12.258 7.31568C12.1929 7.51164 12.1291 7.64228 12.1291 7.77291ZM12.5156 9.47119C11.9997 9.47119 11.5481 9.40587 11.0322 9.20992C10.7095 9.07928 10.5162 8.81801 10.4512 8.4261C10.4512 8.23014 10.4512 8.0995 10.4512 7.90355C10.4512 7.51164 10.5806 7.11973 10.7095 6.72782C10.9677 6.00931 11.4193 5.42145 11.9997 4.96422C12.5807 4.57231 13.2261 4.31104 13.9997 4.24572C14.5807 4.24572 15.0967 4.31104 15.677 4.50699C15.9997 4.63763 16.1936 4.8989 16.1936 5.29081C16.1936 5.87868 16.1286 6.46654 15.9353 6.98909C15.677 7.70759 15.2255 8.29546 14.6451 8.68737C14.0641 9.1446 13.3549 9.34055 12.5807 9.40587C12.5807 9.47119 12.5156 9.47119 12.5156 9.47119Z" fill="black"/>
<path d="M7.99963 4.96441C7.99963 5.09505 8.06468 5.29101 8.12846 5.42164C8.25793 5.81355 8.51623 6.14015 8.77389 6.3361C9.0966 6.59737 9.48306 6.66269 9.87083 6.72801C9.99965 6.72801 10.1285 6.72801 10.3224 6.72801C10.3224 6.59737 10.258 6.46674 10.1935 6.27078C10.0647 5.87887 9.80577 5.55228 9.54811 5.35632C9.2254 5.16037 8.90271 5.02973 8.51623 4.96441C8.32235 4.89909 8.19351 4.96441 7.99963 4.96441ZM9.99966 8.29565C9.93524 8.29565 9.93524 8.29565 9.87083 8.29565C9.09658 8.29565 8.45117 8.03438 7.8708 7.64247C7.29043 7.25056 6.9033 6.66269 6.645 5.94419C6.45176 5.42164 6.38672 4.89909 6.38672 4.31123C6.38672 3.98464 6.58061 3.65804 6.90332 3.52741C7.48368 3.33145 7.99964 3.26613 8.58 3.26613C9.29048 3.33145 9.93525 3.52741 10.5163 3.91932C11.0966 4.31123 11.4837 4.89909 11.7414 5.6176C11.9353 6.14015 11.9997 6.66269 11.9997 7.25056C11.9997 7.57715 11.8064 7.90374 11.4837 8.03438C10.9678 8.23034 10.4512 8.29565 9.99966 8.29565Z" fill="black"/>
<path d="M12.0641 14.6317C12.3868 14.697 12.7095 14.697 13.0322 14.697C13.6776 14.697 14.258 14.501 14.7095 14.1091C15.1611 13.7825 15.5482 13.26 15.7415 12.6721C15.8709 12.3455 15.9353 12.0189 15.9353 11.6923C15.6126 11.627 15.2899 11.5617 14.9028 11.627C14.258 11.627 13.7414 11.823 13.2899 12.2149C12.8383 12.5415 12.4518 13.064 12.258 13.6519C12.1929 13.9785 12.1291 14.3051 12.0641 14.6317ZM12.9034 16.3953C12.258 16.3953 11.6125 16.2646 11.0322 16.0687C10.7095 15.938 10.5162 15.6768 10.4512 15.2849C10.4512 15.0889 10.4512 14.8929 10.4512 14.697C10.5162 14.1744 10.58 13.6519 10.7739 13.1293C11.0966 12.2149 11.677 11.4311 12.3868 10.9085C13.096 10.386 13.9353 10.0594 14.9028 10.0594C14.9672 10.0594 15.0967 10.0594 15.1611 10.0594C15.8059 10.0594 16.4513 10.19 17.0967 10.386C17.4194 10.5166 17.6126 10.7779 17.677 11.1698C17.677 11.9536 17.5482 12.6721 17.3544 13.3253C17.0317 14.2398 16.4513 14.9583 15.7415 15.4808C15.0323 16.0034 14.1292 16.3299 13.1611 16.3299C13.0322 16.3299 12.9672 16.3953 12.9034 16.3953Z" fill="black"/>
<path d="M6.45192 10.1253C6.51633 10.4519 6.58073 10.7785 6.64514 11.1051C6.83839 11.693 7.22552 12.1502 7.67706 12.5421C8.1286 12.8687 8.70959 13.0647 9.35437 13.13C9.41942 13.13 9.41943 13.13 9.4832 13.13C9.74214 13.13 10.0649 13.13 10.3225 13.0647C10.2581 12.7381 10.1937 12.4115 10.1286 12.0849C9.93539 11.497 9.54825 10.9745 9.09671 10.6479C8.64517 10.3213 8.06484 10.1253 7.48383 10.06C7.16112 10.06 6.8384 10.06 6.45192 10.1253ZM9.54826 14.7629C9.4832 14.7629 9.41943 14.7629 9.41943 14.7629C8.4513 14.7629 7.54824 14.4363 6.83841 13.9138C6.12921 13.3913 5.54883 12.6074 5.22612 11.7583C4.96718 11.1051 4.83835 10.3866 4.9034 9.60278C4.9034 9.27619 5.09665 8.9496 5.48378 8.81896C6.19361 8.55769 6.96787 8.42705 7.67706 8.49237C8.58014 8.55769 9.48321 8.81896 10.1937 9.34151C10.9029 9.86406 11.4839 10.6479 11.8066 11.5623C12.0643 12.2155 12.1293 12.934 12.1293 13.7178C12.1293 14.0444 11.9354 14.371 11.6127 14.5017C10.774 14.6323 10.1286 14.7629 9.54826 14.7629Z" fill="black"/>
<path d="M37.0969 21.9988H22.5814C22.3875 21.9988 22.1936 21.9047 21.9997 21.6223L20.1292 18.8929L18.2579 21.6223C18.1291 21.8105 17.8715 21.9988 17.6776 21.9988H0.839279C0.38774 21.9988 0 21.4341 0 20.7752C0 20.1164 0.38774 19.5517 0.839279 19.5517H17.4199L19.6132 16.3517C19.9359 15.8811 20.4519 15.8811 20.7746 16.3517L22.9679 19.5517H37.1613C37.6129 19.5517 38 20.1164 38 20.7752C38 21.4341 37.5485 21.9988 37.0969 21.9988Z" fill="black"/>
<path d="M8.06455 26.9788H2.38651C1.93497 26.9788 1.54785 26.5868 1.54785 26.1294C1.54785 25.6721 1.93497 25.2801 2.38651 25.2801H8.06455C8.51609 25.2801 8.90259 25.6721 8.90259 26.1294C8.90259 26.5868 8.51609 26.9788 8.06455 26.9788Z" fill="black"/>
<path d="M14.5168 30.2476H10.4523C10.0008 30.2476 9.61426 29.8556 9.61426 29.3982C9.61426 28.9409 10.0008 28.5489 10.4523 28.5489H14.5168C14.9683 28.5489 15.3554 28.9409 15.3554 29.3982C15.3554 29.8556 14.9683 30.2476 14.5168 30.2476Z" fill="black"/>
<path d="M25.032 31.8801H19.3546C18.9031 31.8801 18.5166 31.4881 18.5166 31.0308C18.5166 30.5735 18.9031 30.1815 19.3546 30.1815H25.032C25.4836 30.1815 25.8713 30.5735 25.8713 31.0308C25.8063 31.4881 25.4191 31.8801 25.032 31.8801Z" fill="black"/>
<path d="M31.4848 35.145H27.4197C26.9675 35.145 26.5811 34.753 26.5811 34.2957C26.5811 33.8383 26.9675 33.4463 27.4197 33.4463H31.4848C31.9364 33.4463 32.3229 33.8383 32.3229 34.2957C32.2585 34.753 31.8713 35.145 31.4848 35.145Z" fill="black"/>
<path d="M25.033 26.9788H20.9685C20.517 26.9788 20.1299 26.5868 20.1299 26.1294C20.1299 25.6721 20.517 25.2801 20.9685 25.2801H25.033C25.4846 25.2801 25.8723 25.6721 25.8723 26.1294C25.8723 26.5868 25.4201 26.9788 25.033 26.9788Z" fill="black"/>
<path d="M33.0965 29.4548H29.032C28.5805 29.4548 28.1934 29.0628 28.1934 28.6055C28.1934 28.1482 28.5805 27.7562 29.032 27.7562H33.0965C33.548 27.7562 33.9352 28.1482 33.9352 28.6055C33.8708 29.0628 33.4836 29.4548 33.0965 29.4548Z" fill="black"/>
<path d="M8.06492 31.8801H4.00044C3.54827 31.8801 3.16113 31.4881 3.16113 31.0308C3.16113 30.5735 3.54827 30.1815 4.00044 30.1815H8.06492C8.51646 30.1815 8.90295 30.5735 8.90295 31.0308C8.90295 31.4881 8.51646 31.8801 8.06492 31.8801Z" fill="black"/>
<path d="M16.1287 34.3521H12.0642C11.6127 34.3521 11.2256 33.96 11.2256 33.5027C11.2256 33.0454 11.6127 32.6534 12.0642 32.6534H16.1287C16.5803 32.6534 16.968 33.0454 16.968 33.5027C16.968 33.96 16.5803 34.3521 16.1287 34.3521Z" fill="black"/>
<path d="M6.45254 35.9963H4.83901C4.38747 35.9963 4.00098 35.6043 4.00098 35.147C4.00098 34.6897 4.38747 34.2977 4.83901 34.2977H6.45254C6.90408 34.2977 7.2912 34.6897 7.2912 35.147C7.2912 35.6043 6.90408 35.9963 6.45254 35.9963Z" fill="black"/>
<path d="M21.8078 35.9963H20.9685C20.517 35.9963 20.1299 35.6043 20.1299 35.147C20.1299 34.6897 20.517 34.2977 20.9685 34.2977H21.8078C22.2594 34.2977 22.6458 34.6897 22.6458 35.147C22.5821 35.6043 22.1943 35.9963 21.8078 35.9963Z" fill="black"/>
<path d="M16.1295 26.9788H15.2908C14.8393 26.9788 14.4521 26.5868 14.4521 26.1294C14.4521 25.6721 14.8393 25.2801 15.2908 25.2801H16.1295C16.581 25.2801 16.9688 25.6721 16.9688 26.1294C16.9688 26.5868 16.581 26.9788 16.1295 26.9788Z" fill="black"/>
<path d="M33.8697 26.1938H33.031C32.5795 26.1938 32.1924 25.8018 32.1924 25.3445C32.1924 24.8872 32.5795 24.4952 33.031 24.4952H33.8697C34.3212 24.4952 34.7083 24.8872 34.7083 25.3445C34.7083 25.8018 34.3212 26.1938 33.8697 26.1938Z" fill="black"/>
<path d="M33.8697 33.5046H33.031C32.5795 33.5046 32.1924 33.1126 32.1924 32.6553C32.1924 32.198 32.5795 31.806 33.031 31.806H33.8697C34.3212 31.806 34.7083 32.198 34.7083 32.6553C34.7083 33.1126 34.3212 33.5046 33.8697 33.5046Z" fill="black"/>
<path d="M2.83729 4.96449C2.64405 4.96449 2.4508 5.1605 2.4508 5.3565C2.4508 5.5525 2.57963 5.7485 2.83729 5.7485C3.09559 5.7485 3.22506 5.5525 3.22506 5.3565C3.22506 5.1605 3.03117 4.96449 2.83729 4.96449ZM2.83729 7.38184C1.74097 7.38184 0.837891 6.46717 0.837891 5.3565C0.837891 4.24583 1.74097 3.33116 2.83729 3.33116C3.93425 3.33116 4.83735 4.24583 4.83735 5.3565C4.83735 6.46717 3.93425 7.38184 2.83729 7.38184Z" fill="black"/>
<path d="M35.4848 1.69843C35.0332 1.69843 34.6461 2.09034 34.6461 2.54757C34.6461 3.0048 35.0332 3.39671 35.4848 3.39671C35.9363 3.39671 36.3234 3.0048 36.3234 2.54757C36.3234 2.02502 35.9363 1.69843 35.4848 1.69843ZM35.4848 4.96436C34.1302 4.96436 33.0332 3.85394 33.0332 2.48225C33.0332 1.11057 34.1302 0.000152588 35.4848 0.000152588C36.8394 0.000152588 37.9363 1.11057 37.9363 2.48225C37.9363 3.85394 36.8394 4.96436 35.4848 4.96436Z" fill="black"/>
</svg>
