<svg width="35" height="35" viewBox="0 0 35 35" fill="none" xmlns="http://www.w3.org/2000/svg">
<path d="M31.7336 34.0667C31.4225 34.0667 31.1114 34.0278 30.8003 33.95C26.8336 32.4722 23.4114 31.0722 20.5336 29.75C16.3336 27.8833 13.6308 26.3472 12.4253 25.1417C11.2197 23.9361 10.3642 22.5166 9.85859 20.8833C9.35304 19.25 9.27526 17.6361 9.62526 16.0416C9.97526 14.4472 10.7336 13.0666 11.9003 11.9C13.0669 10.7333 14.4475 9.97498 16.0419 9.62498C17.6364 9.27498 19.2503 9.35276 20.8836 9.85831C22.5169 10.3639 23.9364 11.2194 25.1419 12.425C26.3475 13.6305 27.8836 16.3333 29.7503 20.5333C31.0725 23.4111 32.4725 26.8333 33.9503 30.8C34.1058 31.2667 34.1253 31.7333 34.0086 32.2C33.8919 32.6667 33.678 33.0555 33.3669 33.3667C32.9003 33.8333 32.3558 34.0667 31.7336 34.0667ZM18.0836 10.3833C17.0725 10.3833 16.0808 10.5778 15.1086 10.9666C14.1364 11.3555 13.3003 11.9 12.6003 12.6C11.5892 13.6111 10.928 14.8361 10.6169 16.275C10.3058 17.7139 10.3642 19.1722 10.7919 20.65C11.2197 22.1278 12.0169 23.45 13.1836 24.6166C14.0392 25.4722 16.0419 26.6389 19.1919 28.1167C22.3419 29.5944 26.328 31.2278 31.1503 33.0167C31.4614 33.0944 31.753 33.1139 32.0253 33.075C32.2975 33.0361 32.5308 32.9194 32.7253 32.725C32.9197 32.5305 33.0364 32.2972 33.0753 32.025C33.1142 31.7528 33.0947 31.4611 33.0169 31.15C31.228 26.3278 29.5947 22.3417 28.1169 19.1916C26.6392 16.0416 25.4725 14.0389 24.6169 13.1833C23.7614 12.3278 22.7697 11.6472 21.6419 11.1416C20.5142 10.6361 19.328 10.3833 18.0836 10.3833ZM10.1503 16.5666C9.99471 16.5666 9.87804 16.5278 9.80026 16.45L7.35026 14C7.27248 13.9222 7.23359 13.825 7.23359 13.7083C7.23359 13.5916 7.27248 13.4944 7.35026 13.4166L13.4169 7.34998C13.4947 7.2722 13.5919 7.23331 13.7086 7.23331C13.8253 7.23331 13.9225 7.2722 14.0003 7.34998L16.4503 9.79998C16.528 9.87776 16.5669 9.99443 16.5669 10.15C16.5669 10.3055 16.528 10.4222 16.4503 10.5C16.3725 10.5778 16.2558 10.6166 16.1003 10.6166C15.9447 10.6166 15.828 10.5778 15.7503 10.5L13.6503 8.39998L8.40026 13.7666L10.5003 15.75C10.6558 15.9055 10.6947 16.0805 10.6169 16.275C10.5392 16.4694 10.3836 16.5666 10.1503 16.5666ZM11.7836 10.15C11.5503 10.15 11.3947 10.0333 11.3169 9.79998C11.0058 8.78887 10.6753 8.01109 10.3253 7.46665C9.97526 6.9222 9.48915 6.45554 8.86693 6.06665C7.62248 5.36665 6.30026 5.01665 4.90026 5.01665C4.90026 6.33887 5.25026 7.6222 5.95026 8.86665C6.10582 9.0222 6.14471 9.17776 6.06693 9.33331C5.98915 9.48887 5.85304 9.56665 5.65859 9.56665C5.46415 9.56665 5.32804 9.48887 5.25026 9.33331C4.31693 7.85554 3.88915 6.2222 3.96693 4.43332C3.96693 4.35554 4.02526 4.25831 4.14193 4.14165C4.25859 4.02498 4.35582 3.96665 4.43359 3.96665C6.22248 3.88887 7.85582 4.31665 9.33359 5.24998C10.1114 5.71665 10.6947 6.28054 11.0836 6.94165C11.4725 7.60276 11.8614 8.47776 12.2503 9.56665C12.2503 9.7222 12.2114 9.83887 12.1336 9.91665C12.0558 9.99443 11.978 10.0722 11.9003 10.15H11.7836ZM7.93359 14C6.45582 13.9222 5.28915 13.7666 4.43359 13.5333C3.11137 13.1444 1.98359 12.4444 1.05026 11.4333C0.972483 11.3555 0.933594 11.2389 0.933594 11.0833C0.933594 10.9278 1.01137 10.8111 1.16693 10.7333C2.41137 9.64443 3.85026 8.94443 5.48359 8.63332C5.71693 8.63332 5.87248 8.71109 5.95026 8.86665C6.41693 9.48887 6.92248 9.97498 7.46693 10.325C8.01137 10.675 8.78915 11.0055 9.80026 11.3166C9.95582 11.3944 10.053 11.5111 10.0919 11.6666C10.1308 11.8222 10.0919 11.9778 9.97526 12.1333C9.85859 12.2889 9.72248 12.3278 9.56693 12.25C8.55582 11.9389 7.71971 11.5889 7.05859 11.2C6.39748 10.8111 5.83359 10.3055 5.36693 9.68332C4.20026 9.91665 3.11137 10.4222 2.10026 11.2C2.87804 11.9 3.81137 12.4055 4.90026 12.7166C5.67804 12.8722 6.68915 12.9889 7.93359 13.0666C8.08915 13.0666 8.20582 13.125 8.28359 13.2416C8.36137 13.3583 8.40026 13.475 8.40026 13.5916C8.40026 13.7083 8.34193 13.8055 8.22526 13.8833C8.10859 13.9611 8.01137 14 7.93359 14ZM13.5336 8.39998C13.4558 8.39998 13.3586 8.34165 13.2419 8.22498C13.1253 8.10831 13.0669 8.01109 13.0669 7.93332C12.9892 6.68887 12.8725 5.67776 12.7169 4.89998C12.4058 3.81109 11.9003 2.87776 11.2003 2.09998C10.3447 3.18887 9.80026 4.39443 9.56693 5.71665C9.56693 5.8722 9.50859 5.96943 9.39193 6.00832C9.27526 6.0472 9.15859 6.06665 9.04193 6.06665C8.92526 6.06665 8.82804 6.00832 8.75026 5.89165C8.67248 5.77498 8.63359 5.67776 8.63359 5.59998C8.94471 3.88887 9.64471 2.41109 10.7336 1.16665C10.8114 1.01109 10.928 0.933315 11.0836 0.933315C11.2392 0.933315 11.3558 0.972202 11.4336 1.04998C12.4447 1.98331 13.1447 3.11109 13.5336 4.43332C13.7669 5.28887 13.9225 6.41665 14.0003 7.81665C14.0003 7.9722 13.9614 8.10831 13.8836 8.22498C13.8058 8.34165 13.6891 8.39998 13.5336 8.39998ZM12.2503 24.85C12.0947 24.85 11.978 24.7722 11.9003 24.6166C11.8225 24.4611 11.8225 24.3055 11.9003 24.15C12.6003 22.9055 13.5336 21.9333 14.7003 21.2333C14.8558 21.1555 15.0114 21.175 15.1669 21.2916C15.3225 21.4083 15.4003 21.5444 15.4003 21.7C15.4003 21.8555 15.3225 21.9722 15.1669 22.05C14.1558 22.6722 13.3392 23.5278 12.7169 24.6166C12.6391 24.7722 12.4836 24.85 12.2503 24.85ZM19.7169 29.4C19.4836 29.4 19.328 29.3028 19.2503 29.1083C19.1725 28.9139 19.1725 28.7389 19.2503 28.5833C19.9503 27.4166 20.8836 26.5222 22.0503 25.9C22.2058 25.8222 22.3614 25.8222 22.5169 25.9C22.6725 25.9778 22.7503 26.1139 22.7503 26.3083C22.7503 26.5028 22.6725 26.6389 22.5169 26.7167C21.5058 27.3389 20.6891 28.1555 20.0669 29.1666C19.9892 29.3222 19.8725 29.4 19.7169 29.4ZM27.8836 26.0167C27.728 26.0167 27.6114 25.9389 27.5336 25.7833C27.4558 25.6278 27.4558 25.4722 27.5336 25.3166C28.1558 24.2278 29.0114 23.3333 30.1003 22.6333C30.2558 22.4778 30.4114 22.4583 30.5669 22.575C30.7225 22.6916 30.8003 22.8472 30.8003 23.0416C30.8003 23.2361 30.7225 23.3722 30.5669 23.45C29.6336 23.9944 28.8947 24.7722 28.3503 25.7833C28.2725 25.9389 28.1169 26.0167 27.8836 26.0167ZM23.3336 17.2666C23.2558 17.2666 23.178 17.2472 23.1003 17.2083C23.0225 17.1694 22.9642 17.0917 22.9253 16.975C22.8864 16.8583 22.9058 16.7222 22.9836 16.5666C23.6836 15.3222 24.6169 14.3889 25.7836 13.7666C26.0169 13.6111 26.2114 13.5916 26.3669 13.7083C26.5225 13.825 26.5808 13.9805 26.5419 14.175C26.503 14.3694 26.4058 14.5055 26.2503 14.5833C25.2392 15.2055 24.4225 16.0222 23.8003 17.0333C23.7225 17.1889 23.5669 17.2666 23.3336 17.2666Z" fill="#031A0B"/>
</svg>
