<svg width="35" height="35" viewBox="0 0 35 35" fill="none" xmlns="http://www.w3.org/2000/svg">
<path d="M31.1503 29.9834H3.85026C3.07248 29.9834 2.39193 29.6917 1.80859 29.1084C1.22526 28.5251 0.933594 27.8445 0.933594 27.0667V19.8334C0.933594 19.6001 1.01137 19.4056 1.16693 19.2501C1.32248 19.0945 1.47804 19.0167 1.63359 19.0167H4.55026C4.78359 19.0167 4.95859 19.0945 5.07526 19.2501C5.19193 19.4056 5.25026 19.6001 5.25026 19.8334V21.1167C5.25026 21.1945 5.28915 21.2723 5.36693 21.3501C5.44471 21.4278 5.56137 21.4667 5.71693 21.4667H10.2669C10.3447 21.4667 10.4225 21.4278 10.5003 21.3501C10.578 21.2723 10.6169 21.1945 10.6169 21.1167V19.8334C10.6169 19.6001 10.6947 19.4056 10.8503 19.2501C11.0058 19.0945 11.1614 19.0167 11.3169 19.0167H14.2336C14.4669 19.0167 14.6419 19.0945 14.7586 19.2501C14.8753 19.4056 14.9336 19.6001 14.9336 19.8334V21.1167C14.9336 21.1945 14.9725 21.2723 15.0503 21.3501C15.128 21.4278 15.2447 21.4667 15.4003 21.4667H19.6003C19.678 21.4667 19.7558 21.4278 19.8336 21.3501C19.9114 21.2723 19.9503 21.1945 19.9503 21.1167V19.8334C19.9503 19.6001 20.028 19.4056 20.1836 19.2501C20.3392 19.0945 20.4947 19.0167 20.6503 19.0167H23.6836C23.9169 19.0167 24.0919 19.0945 24.2086 19.2501C24.3253 19.4056 24.3836 19.6001 24.3836 19.8334V21.1167C24.3836 21.1945 24.4225 21.2723 24.5003 21.3501C24.578 21.4278 24.6947 21.4667 24.8503 21.4667H29.2836C29.4392 21.4667 29.5558 21.4278 29.6336 21.3501C29.7114 21.2723 29.7503 21.1945 29.7503 21.1167V19.8334C29.7503 19.6001 29.8086 19.4056 29.9253 19.2501C30.0419 19.0945 30.2169 19.0167 30.4503 19.0167H33.3669C33.5225 19.0167 33.678 19.0945 33.8336 19.2501C33.9892 19.4056 34.0669 19.6001 34.0669 19.8334V27.0667C34.0669 27.8445 33.7753 28.5251 33.1919 29.1084C32.6086 29.6917 31.928 29.9834 31.1503 29.9834ZM1.86693 19.9501V27.0667C1.86693 27.6112 2.06137 28.0778 2.45026 28.4667C2.83915 28.8556 3.30582 29.0501 3.85026 29.0501H31.1503C31.6947 29.0501 32.1614 28.8556 32.5503 28.4667C32.9392 28.0778 33.1336 27.6112 33.1336 27.0667V19.9501H30.6836V21.1167C30.6836 21.5056 30.5475 21.8167 30.2753 22.0501C30.003 22.2834 29.6725 22.4001 29.2836 22.4001H24.8503C24.4614 22.4001 24.1308 22.2834 23.8586 22.0501C23.5864 21.8167 23.4503 21.5056 23.4503 21.1167V19.9501H20.8836V21.1167C20.8836 21.5056 20.7475 21.8167 20.4753 22.0501C20.203 22.2834 19.9114 22.4001 19.6003 22.4001H15.4003C15.0114 22.4001 14.6808 22.2834 14.4086 22.0501C14.1364 21.8167 14.0003 21.5056 14.0003 21.1167V19.9501H11.5503V21.1167C11.5503 21.5056 11.4142 21.8167 11.1419 22.0501C10.8697 22.2834 10.578 22.4001 10.2669 22.4001H5.71693C5.32804 22.4001 4.99748 22.2834 4.72526 22.0501C4.45304 21.8167 4.31693 21.5056 4.31693 21.1167V19.9501H1.86693ZM33.6003 26.2501H1.40026C1.2447 26.2501 1.12804 26.2112 1.05026 26.1334C0.972483 26.0556 0.933594 25.9584 0.933594 25.8417C0.933594 25.7251 0.972483 25.6084 1.05026 25.4917C1.12804 25.3751 1.2447 25.3167 1.40026 25.3167H33.6003C33.7558 25.3167 33.8725 25.3751 33.9503 25.4917C34.028 25.6084 34.0669 25.7251 34.0669 25.8417C34.0669 25.9584 34.028 26.0556 33.9503 26.1334C33.8725 26.2112 33.7558 26.2501 33.6003 26.2501ZM26.9503 22.4001C26.7947 22.4001 26.678 22.3612 26.6003 22.2834C26.5225 22.2056 26.4836 22.089 26.4836 21.9334V10.1501C26.4836 10.0723 26.5225 9.97506 26.6003 9.8584C26.678 9.74173 26.7753 9.6834 26.8919 9.6834C27.0086 9.6834 27.1253 9.74173 27.2419 9.8584C27.3586 9.97506 27.4169 10.0723 27.4169 10.1501V21.9334C27.4169 22.089 27.3586 22.2056 27.2419 22.2834C27.1253 22.3612 27.028 22.4001 26.9503 22.4001ZM26.9503 10.6167C25.4725 10.6167 24.2475 10.1112 23.2753 9.10006C22.303 8.08895 21.778 6.8834 21.7003 5.4834C21.7003 5.32784 21.7586 5.21117 21.8753 5.1334C21.9919 5.05562 22.128 5.01673 22.2836 5.01673C23.6836 5.01673 24.8892 5.52229 25.9003 6.5334C26.9114 7.54451 27.4169 8.75006 27.4169 10.1501C27.4169 10.3056 27.3586 10.4223 27.2419 10.5001C27.1253 10.5778 27.028 10.6167 26.9503 10.6167ZM22.7503 5.95006C22.828 6.96117 23.2169 7.79729 23.9169 8.4584C24.6169 9.11951 25.4336 9.52784 26.3669 9.6834C26.2892 8.75006 25.9003 7.9334 25.2003 7.2334C24.5003 6.5334 23.6836 6.10562 22.7503 5.95006ZM26.9503 16.8001C26.7947 16.8001 26.678 16.7612 26.6003 16.6834C26.5225 16.6056 26.4836 16.489 26.4836 16.3334C26.4836 14.9334 26.9892 13.7278 28.0003 12.7167C29.0114 11.7056 30.2169 11.2001 31.6169 11.2001C31.7725 11.2001 31.8892 11.239 31.9669 11.3167C32.0447 11.3945 32.0836 11.5112 32.0836 11.6667C32.0836 13.0667 31.578 14.2723 30.5669 15.2834C29.5558 16.2945 28.3503 16.8001 26.9503 16.8001ZM31.1503 12.1334C30.1392 12.289 29.303 12.6973 28.6419 13.3584C27.9808 14.0195 27.5725 14.8556 27.4169 15.8667C28.428 15.7112 29.2642 15.3028 29.9253 14.6417C30.5864 13.9806 30.9947 13.1445 31.1503 12.1334ZM17.5003 22.4001C17.3447 22.4001 17.228 22.3612 17.1503 22.2834C17.0725 22.2056 17.0336 22.089 17.0336 21.9334V10.1501C17.0336 10.0723 17.0725 9.97506 17.1503 9.8584C17.228 9.74173 17.3447 9.6834 17.5003 9.6834C17.6558 9.6834 17.7725 9.74173 17.8503 9.8584C17.928 9.97506 17.9669 10.0723 17.9669 10.1501V21.9334C17.9669 22.089 17.928 22.2056 17.8503 22.2834C17.7725 22.3612 17.6558 22.4001 17.5003 22.4001ZM17.5003 10.6167C16.1003 10.6167 14.8947 10.1112 13.8836 9.10006C12.8725 8.08895 12.3669 6.8834 12.3669 5.4834C12.3669 5.32784 12.4058 5.21117 12.4836 5.1334C12.5614 5.05562 12.678 5.01673 12.8336 5.01673C14.2336 5.01673 15.4391 5.52229 16.4503 6.5334C17.4614 7.54451 17.9669 8.75006 17.9669 10.1501C17.9669 10.3056 17.928 10.4223 17.8503 10.5001C17.7725 10.5778 17.6558 10.6167 17.5003 10.6167ZM13.3003 5.95006C13.4558 6.96117 13.8642 7.79729 14.5253 8.4584C15.1864 9.11951 16.0225 9.52784 17.0336 9.6834C16.878 8.75006 16.4503 7.9334 15.7503 7.2334C15.0503 6.5334 14.2336 6.10562 13.3003 5.95006ZM17.5003 16.8001C17.3447 16.8001 17.228 16.7612 17.1503 16.6834C17.0725 16.6056 17.0336 16.489 17.0336 16.3334C17.0336 14.9334 17.5392 13.7278 18.5503 12.7167C19.5614 11.7056 20.7669 11.2001 22.1669 11.2001C22.3225 11.2001 22.4391 11.239 22.5169 11.3167C22.5947 11.3945 22.6336 11.5112 22.6336 11.6667C22.6336 13.0667 22.128 14.2723 21.1169 15.2834C20.1058 16.2945 18.9003 16.8001 17.5003 16.8001ZM21.7003 12.1334C20.7669 12.289 19.9503 12.6973 19.2503 13.3584C18.5503 14.0195 18.1225 14.8556 17.9669 15.8667C18.978 15.7112 19.8141 15.3028 20.4753 14.6417C21.1364 13.9806 21.5447 13.1445 21.7003 12.1334ZM8.05026 22.4001C7.97248 22.4001 7.87526 22.3612 7.75859 22.2834C7.64193 22.2056 7.58359 22.089 7.58359 21.9334V10.1501C7.58359 10.0723 7.64193 9.97506 7.75859 9.8584C7.87526 9.74173 7.99193 9.6834 8.10859 9.6834C8.22526 9.6834 8.32248 9.74173 8.40026 9.8584C8.47804 9.97506 8.51693 10.0723 8.51693 10.1501V21.9334C8.51693 22.089 8.47804 22.2056 8.40026 22.2834C8.32248 22.3612 8.20582 22.4001 8.05026 22.4001ZM8.05026 10.6167C6.65026 10.6167 5.44471 10.1112 4.43359 9.10006C3.42248 8.08895 2.91693 6.8834 2.91693 5.4834C2.91693 5.32784 2.95582 5.21117 3.03359 5.1334C3.11137 5.05562 3.22804 5.01673 3.38359 5.01673C4.78359 5.01673 5.98915 5.52229 7.00026 6.5334C8.01137 7.54451 8.51693 8.75006 8.51693 10.1501C8.51693 10.3056 8.47804 10.4223 8.40026 10.5001C8.32248 10.5778 8.20582 10.6167 8.05026 10.6167ZM3.85026 5.95006C4.00582 6.96117 4.41415 7.79729 5.07526 8.4584C5.73637 9.11951 6.57248 9.52784 7.58359 9.6834C7.42804 8.75006 7.01971 7.9334 6.35859 7.2334C5.69748 6.5334 4.86137 6.10562 3.85026 5.95006ZM8.05026 16.8001C7.97248 16.8001 7.87526 16.7612 7.75859 16.6834C7.64193 16.6056 7.58359 16.489 7.58359 16.3334C7.58359 14.9334 8.08915 13.7278 9.10026 12.7167C10.1114 11.7056 11.3169 11.2001 12.7169 11.2001C12.8725 11.2001 13.0086 11.239 13.1253 11.3167C13.2419 11.3945 13.3003 11.5112 13.3003 11.6667C13.2225 13.0667 12.6975 14.2723 11.7253 15.2834C10.753 16.2945 9.52804 16.8001 8.05026 16.8001ZM12.2503 12.1334C11.3169 12.289 10.5003 12.6973 9.80026 13.3584C9.10026 14.0195 8.71137 14.8556 8.63359 15.8667C9.56693 15.7112 10.3836 15.3028 11.0836 14.6417C11.7836 13.9806 12.1725 13.1445 12.2503 12.1334Z" fill="#031A0B"/>
</svg>
