<svg width="35" height="35" viewBox="0 0 35 35" fill="none" xmlns="http://www.w3.org/2000/svg">
<path d="M8.75026 13.1831C7.50582 13.1831 6.45582 12.7164 5.60026 11.7831C4.90026 11.1608 4.08359 9.48863 3.15026 6.76641C2.60582 5.28863 2.10026 3.77196 1.63359 2.2164C1.63359 2.06085 1.69193 1.92474 1.80859 1.80807C1.92526 1.6914 2.06137 1.63307 2.21693 1.63307C3.85026 2.09974 5.36693 2.60529 6.76693 3.14974C9.48915 4.08307 11.1808 4.88029 11.8419 5.5414C12.503 6.20251 12.9114 6.98029 13.0669 7.87474C13.2225 8.76918 13.1253 9.62474 12.7753 10.4414C12.4253 11.2581 11.8808 11.9192 11.1419 12.4247C10.403 12.9303 9.60582 13.1831 8.75026 13.1831ZM2.80026 2.79974C3.3447 4.58863 3.88915 6.18307 4.43359 7.58307C5.21137 9.52752 5.83359 10.7331 6.30026 11.1997C6.92248 11.822 7.7197 12.1331 8.69193 12.1331C9.66415 12.1331 10.4808 11.8025 11.1419 11.1414C11.803 10.4803 12.1336 9.66363 12.1336 8.6914C12.1336 7.71918 11.8225 6.92196 11.2003 6.29974C10.7336 5.83307 9.52804 5.21085 7.58359 4.43307C6.18359 3.88863 4.58915 3.34418 2.80026 2.79974ZM16.3336 15.1664C15.0891 15.1664 14.0391 14.7386 13.1836 13.8831C12.328 13.0275 11.9003 11.9775 11.9003 10.7331C11.9003 9.79974 12.5225 8.01085 13.7669 5.3664C14.3891 3.9664 15.0891 2.5664 15.8669 1.1664C16.0225 1.01085 16.178 0.933071 16.3336 0.933071C16.4891 0.933071 16.6058 1.01085 16.6836 1.1664C17.4614 2.5664 18.2003 3.9664 18.9003 5.3664C20.1447 8.01085 20.7669 9.79974 20.7669 10.7331C20.7669 11.9775 20.3391 13.0275 19.4836 13.8831C18.628 14.7386 17.578 15.1664 16.3336 15.1664ZM16.3336 2.44974C15.478 4.00529 14.7391 5.48307 14.1169 6.88307C13.2614 8.74974 12.8336 10.0136 12.8336 10.6747C12.8336 11.3358 12.9891 11.9386 13.3003 12.4831C13.6114 13.0275 14.0391 13.4553 14.5836 13.7664C15.128 14.0775 15.7114 14.2331 16.3336 14.2331C16.9558 14.2331 17.5391 14.0775 18.0836 13.7664C18.628 13.4553 19.0558 13.0275 19.3669 12.4831C19.678 11.9386 19.8336 11.3358 19.8336 10.6747C19.8336 10.0136 19.4058 8.74974 18.5503 6.88307C17.928 5.48307 17.1891 4.00529 16.3336 2.44974ZM10.7336 20.7664C9.80026 20.7664 8.01137 20.1442 5.36693 18.8997C3.96693 18.1997 2.56693 17.4608 1.16693 16.6831C1.01137 16.6053 0.933594 16.4692 0.933594 16.2747C0.933594 16.0803 1.01137 15.9442 1.16693 15.8664C2.56693 15.0886 3.96693 14.3886 5.36693 13.7664C8.01137 12.522 9.76137 11.8997 10.6169 11.8997C11.4725 11.8997 12.2503 12.0942 12.9503 12.4831C13.6503 12.872 14.1947 13.4164 14.5836 14.1164C14.9725 14.8164 15.1669 15.5553 15.1669 16.3331C15.1669 17.1108 14.9725 17.8497 14.5836 18.5497C14.1947 19.2497 13.6503 19.7942 12.9503 20.1831C12.2503 20.572 11.5114 20.7664 10.7336 20.7664ZM2.45026 16.3331C4.00582 17.1886 5.48359 17.9275 6.88359 18.5497C8.75026 19.4053 10.0141 19.8331 10.6753 19.8331C11.3364 19.8331 11.9391 19.6775 12.4836 19.3664C13.028 19.0553 13.4558 18.6275 13.7669 18.0831C14.078 17.5386 14.2336 16.9553 14.2336 16.3331C14.2336 15.7108 14.078 15.1275 13.7669 14.5831C13.4558 14.0386 13.028 13.6108 12.4836 13.2997C11.9391 12.9886 11.3364 12.8331 10.6753 12.8331C10.0141 12.8331 8.75026 13.2608 6.88359 14.1164C5.48359 14.7386 4.00582 15.4775 2.45026 16.3331ZM22.4003 21.2331C21.1558 21.2331 20.1058 20.8053 19.2503 19.9497C18.3947 19.0942 17.9669 18.0442 17.9669 16.7997C17.9669 15.8664 18.5891 14.0775 19.8336 11.4331C20.4558 10.0331 21.1558 8.63307 21.9336 7.23307C22.0891 7.07751 22.2447 6.99974 22.4003 6.99974C22.5558 6.99974 22.6725 7.07751 22.7503 7.23307C23.528 8.63307 24.2669 10.0331 24.9669 11.4331C26.2114 14.0775 26.8336 15.8664 26.8336 16.7997C26.8336 18.0442 26.4058 19.0942 25.5503 19.9497C24.6947 20.8053 23.6447 21.2331 22.4003 21.2331ZM22.4003 8.51641C21.5447 10.072 20.8058 11.5497 20.1836 12.9497C19.328 14.8164 18.9003 16.0997 18.9003 16.7997C18.9003 17.7331 19.2308 18.5497 19.8919 19.2497C20.553 19.9497 21.3697 20.2997 22.3419 20.2997C23.3141 20.2997 24.1503 19.9497 24.8503 19.2497C25.5503 18.5497 25.9003 17.7331 25.9003 16.7997C25.9003 16.0997 25.4725 14.8164 24.6169 12.9497C23.9947 11.5497 23.2558 10.072 22.4003 8.51641ZM16.8003 26.8331C15.8669 26.8331 14.078 26.2109 11.4336 24.9664C10.0336 24.2664 8.63359 23.5275 7.23359 22.7497C7.07804 22.672 7.00026 22.5358 7.00026 22.3414C7.00026 22.147 7.07804 22.0108 7.23359 21.9331C8.63359 21.1553 10.0336 20.4553 11.4336 19.8331C14.078 18.5886 15.8669 17.9664 16.8003 17.9664C18.0447 17.9664 19.0947 18.3942 19.9503 19.2497C20.8058 20.1053 21.2336 21.1553 21.2336 22.3997C21.2336 23.6442 20.8058 24.6942 19.9503 25.5497C19.0947 26.4053 18.0447 26.8331 16.8003 26.8331ZM8.51693 22.3997C10.0725 23.2553 11.5503 23.9942 12.9503 24.6164C14.8169 25.472 16.1003 25.8997 16.8003 25.8997C17.7336 25.8997 18.5503 25.5497 19.2503 24.8497C19.9503 24.1497 20.3003 23.3136 20.3003 22.3414C20.3003 21.3692 19.9503 20.5525 19.2503 19.8914C18.5503 19.2303 17.7336 18.8997 16.8003 18.8997C16.1003 18.8997 14.8169 19.3275 12.9503 20.1831C11.5503 20.8053 10.0725 21.5442 8.51693 22.3997ZM28.4669 27.2997C27.2225 27.2997 26.1725 26.872 25.3169 26.0164C24.4614 25.1609 24.0336 24.1109 24.0336 22.8664C24.0336 21.9331 24.6558 20.1442 25.9003 17.4997C26.5225 16.0997 27.2225 14.6997 28.0003 13.2997C28.078 13.1442 28.2141 13.0664 28.4086 13.0664C28.603 13.0664 28.7391 13.1442 28.8169 13.2997C29.5947 14.6997 30.3336 16.0997 31.0336 17.4997C32.278 20.1442 32.9003 21.9331 32.9003 22.8664C32.9003 24.1109 32.453 25.1609 31.5586 26.0164C30.6641 26.872 29.6336 27.2997 28.4669 27.2997ZM28.4669 14.5831C27.6114 16.1386 26.8725 17.6164 26.2503 19.0164C25.3947 20.8831 24.9669 22.1664 24.9669 22.8664C24.9669 23.7997 25.2975 24.6164 25.9586 25.3164C26.6197 26.0164 27.4364 26.3664 28.4086 26.3664C29.3808 26.3664 30.2169 26.0164 30.9169 25.3164C31.6169 24.6164 31.9669 23.7997 31.9669 22.8664C31.9669 22.1664 31.5391 20.8831 30.6836 19.0164C30.0614 17.6164 29.3225 16.1386 28.4669 14.5831ZM22.8669 32.8997C21.9336 32.8997 20.1447 32.2775 17.5003 31.0331C16.1003 30.3331 14.7003 29.5942 13.3003 28.8164C13.1447 28.7386 13.0669 28.6025 13.0669 28.4081C13.0669 28.2136 13.1447 28.0775 13.3003 27.9997C14.7003 27.222 16.1003 26.522 17.5003 25.8997C20.1447 24.6553 21.8947 24.0331 22.7503 24.0331C23.6058 24.0331 24.3836 24.2275 25.0836 24.6164C25.7836 25.0053 26.328 25.5497 26.7169 26.2497C27.1058 26.9497 27.3003 27.6886 27.3003 28.4664C27.3003 29.2442 27.1058 29.9831 26.7169 30.6831C26.328 31.3831 25.7836 31.9275 25.0836 32.3164C24.3836 32.7053 23.6447 32.8997 22.8669 32.8997ZM14.5836 28.4664C16.1391 29.322 17.6169 30.0609 19.0169 30.6831C20.8836 31.5386 22.1475 31.9664 22.8086 31.9664C23.4697 31.9664 24.0725 31.8109 24.6169 31.4997C25.1614 31.1886 25.5891 30.7609 25.9003 30.2164C26.2114 29.672 26.3669 29.0886 26.3669 28.4664C26.3669 27.8442 26.2114 27.2609 25.9003 26.7164C25.5891 26.172 25.1614 25.7442 24.6169 25.4331C24.0725 25.122 23.4697 24.9664 22.8086 24.9664C22.1475 24.9664 20.8836 25.3942 19.0169 26.2497C17.6169 26.872 16.1391 27.6109 14.5836 28.4664ZM33.6003 34.0664C33.4447 34.0664 33.328 34.0275 33.2503 33.9497L25.2003 25.8997C25.1225 25.822 25.0836 25.7247 25.0836 25.6081C25.0836 25.4914 25.1419 25.3747 25.2586 25.2581C25.3753 25.1414 25.4919 25.0831 25.6086 25.0831C25.7253 25.0831 25.8225 25.122 25.9003 25.1997L33.9503 33.2497C34.1058 33.4053 34.1447 33.5803 34.0669 33.7747C33.9891 33.9692 33.8336 34.0664 33.6003 34.0664Z" fill="#031A0B"/>
</svg>
