<svg width="35" height="35" viewBox="0 0 35 35" fill="none" xmlns="http://www.w3.org/2000/svg">
<path d="M5.83359 30.2167H1.40026C1.2447 30.2167 1.12804 30.1778 1.05026 30.1C0.972483 30.0223 0.933594 29.9056 0.933594 29.75V17.0334C0.933594 16.8778 0.972483 16.7611 1.05026 16.6834C1.12804 16.6056 1.2447 16.5667 1.40026 16.5667H5.83359C5.98915 16.5667 6.10582 16.6056 6.18359 16.6834C6.26137 16.7611 6.30026 16.8778 6.30026 17.0334V29.75C6.30026 29.9056 6.26137 30.0223 6.18359 30.1C6.10582 30.1778 5.98915 30.2167 5.83359 30.2167ZM1.86693 29.2834H5.36693V17.5H1.86693V29.2834ZM21.3503 25.4334H13.0669C12.9114 25.4334 12.7947 25.3556 12.7169 25.2C12.6391 25.0445 12.6391 24.8889 12.7169 24.7334C12.7947 24.5778 12.9114 24.5 13.0669 24.5H21.3503C21.6614 24.5 21.953 24.3834 22.2253 24.15C22.4975 23.9167 22.6336 23.625 22.6336 23.275C22.6336 22.925 22.4975 22.6139 22.2253 22.3417C21.953 22.0695 21.6614 21.9334 21.3503 21.9334H18.4336C17.3447 21.9334 16.4503 21.5445 15.7503 20.7667C15.0503 19.9889 14.1947 19.6 13.1836 19.6H5.83359C5.67804 19.6 5.56137 19.5417 5.48359 19.425C5.40582 19.3084 5.36693 19.1917 5.36693 19.075C5.36693 18.9584 5.40582 18.8611 5.48359 18.7834C5.56137 18.7056 5.67804 18.6667 5.83359 18.6667H13.1836C14.5058 18.6667 15.5947 19.1334 16.4503 20.0667C16.9169 20.6889 17.578 21 18.4336 21H21.3503C21.9725 21 22.4975 21.2139 22.9253 21.6417C23.353 22.0695 23.5669 22.5945 23.5669 23.2167C23.5669 23.8389 23.353 24.3639 22.9253 24.7917C22.4975 25.2195 21.9725 25.4334 21.3503 25.4334ZM17.3836 31.6167C16.2169 31.6167 15.0891 31.3834 14.0003 30.9167L5.60026 27.8834C5.4447 27.8056 5.34748 27.6889 5.30859 27.5334C5.2697 27.3778 5.32804 27.2417 5.48359 27.125C5.63915 27.0084 5.7947 26.9889 5.95026 27.0667L14.3503 30.1C15.5169 30.4889 16.703 30.6639 17.9086 30.625C19.1141 30.5861 20.3003 30.2556 21.4669 29.6334L33.0169 23.5667C32.4725 23.0223 31.8308 22.6723 31.0919 22.5167C30.353 22.3611 29.6336 22.4 28.9336 22.6334L22.7503 24.9667C22.5947 24.9667 22.4391 24.9084 22.2836 24.7917C22.128 24.675 22.0697 24.5389 22.1086 24.3834C22.1475 24.2278 22.2447 24.1111 22.4003 24.0334L28.5836 21.8167C29.4391 21.5056 30.3336 21.4473 31.2669 21.6417C32.2003 21.8361 33.0169 22.2445 33.7169 22.8667L33.8336 22.9834C33.9891 23.2167 34.0475 23.45 34.0086 23.6834C33.9697 23.9167 33.8336 24.1111 33.6003 24.2667L21.8169 30.45C20.4947 31.2278 19.0169 31.6167 17.3836 31.6167ZM19.9503 16.45H19.8336C18.5891 16.3723 17.5197 16.0223 16.6253 15.4C15.7308 14.7778 15.0891 14.0389 14.7003 13.1834C14.3114 12.3278 14.1169 11.5111 14.1169 10.7334C14.1169 10.1889 14.3114 9.7417 14.7003 9.3917C15.0891 9.0417 15.5364 8.8667 16.0419 8.8667C16.5475 8.8667 16.9947 9.0417 17.3836 9.3917C17.7725 9.7417 17.9669 10.15 17.9669 10.6167C17.9669 11.0834 18.0836 11.4723 18.3169 11.7834C18.7058 12.3278 19.2891 12.6 20.0669 12.6C20.6114 12.6778 21.0586 12.8917 21.4086 13.2417C21.7586 13.5917 21.9141 14.0195 21.8753 14.525C21.8364 15.0306 21.6419 15.4778 21.2919 15.8667C20.9419 16.2556 20.4947 16.45 19.9503 16.45ZM16.1003 9.80003C15.7891 9.80003 15.5364 9.89725 15.3419 10.0917C15.1475 10.2861 15.0503 10.5 15.0503 10.7334C15.0503 11.8223 15.4391 12.7945 16.2169 13.65C17.0725 14.7389 18.3169 15.3611 19.9503 15.5167C20.2614 15.5167 20.4947 15.4195 20.6503 15.225C20.8058 15.0306 20.903 14.7973 20.9419 14.525C20.9808 14.2528 20.903 14.0195 20.7086 13.825C20.5141 13.6306 20.3003 13.5334 20.0669 13.5334C19.0558 13.5334 18.2975 13.2417 17.7919 12.6584C17.2864 12.075 17.0336 11.4334 17.0336 10.7334C17.0336 10.5 16.9364 10.2861 16.7419 10.0917C16.5475 9.89725 16.3336 9.80003 16.1003 9.80003ZM20.8836 8.40003C20.4947 8.40003 20.1447 8.28336 19.8336 8.05003C19.5225 7.8167 19.2891 7.52503 19.1336 7.17503C18.978 6.82503 18.9391 6.47503 19.0169 6.12503C19.0947 5.77503 19.2891 5.44448 19.6003 5.13336C20.6114 4.20003 21.6419 3.65559 22.6919 3.50003C23.7419 3.34447 24.6947 3.42225 25.5503 3.73336C26.4058 4.04448 27.1447 4.47225 27.7669 5.0167C28.078 5.40559 28.2336 5.85281 28.2336 6.35836C28.2336 6.86392 28.0586 7.31114 27.7086 7.70003C27.3586 8.08892 26.9308 8.28336 26.4253 8.28336C25.9197 8.28336 25.4919 8.10836 25.1419 7.75836C24.7919 7.40836 24.4225 7.23336 24.0336 7.23336C23.4114 7.15559 22.7891 7.38892 22.1669 7.93336C21.8558 8.24448 21.428 8.40003 20.8836 8.40003ZM23.6836 4.3167C22.3614 4.39448 21.2336 4.90003 20.3003 5.83336C20.0669 5.98892 19.9503 6.20281 19.9503 6.47503C19.9503 6.74725 20.0475 6.98059 20.2419 7.17503C20.4364 7.36947 20.6503 7.4667 20.8836 7.4667C21.1169 7.4667 21.3503 7.38892 21.5836 7.23336C22.2836 6.53336 23.0225 6.20281 23.8003 6.2417C24.578 6.28059 25.2003 6.53336 25.6669 7.00003C25.9003 7.23336 26.1336 7.35003 26.3669 7.35003C26.6003 7.35003 26.8141 7.25281 27.0086 7.05836C27.203 6.86392 27.3003 6.63059 27.3003 6.35836C27.3003 6.08614 27.2225 5.87225 27.0669 5.7167C26.1336 4.78336 25.0058 4.3167 23.6836 4.3167ZM29.4003 18.3167C28.8558 18.3167 28.4086 18.1223 28.0586 17.7334C27.7086 17.3445 27.5336 16.9167 27.5336 16.45C27.5336 15.9834 27.4169 15.5945 27.1836 15.2834C26.7947 14.8167 26.1725 14.5445 25.3169 14.4667C24.8503 14.4667 24.4225 14.2723 24.0336 13.8834C23.6447 13.4945 23.4697 13.0473 23.5086 12.5417C23.5475 12.0361 23.7614 11.5889 24.1503 11.2C24.5391 10.8111 24.9669 10.6556 25.4336 10.7334H25.5503C26.8725 10.8111 27.9614 11.1417 28.8169 11.725C29.6725 12.3084 30.2947 13.0278 30.6836 13.8834C31.0725 14.7389 31.2669 15.5556 31.2669 16.3334C31.2669 16.8778 31.0919 17.3445 30.7419 17.7334C30.3919 18.1223 29.9447 18.3167 29.4003 18.3167ZM25.4336 11.6667C25.2003 11.6667 24.9864 11.7445 24.7919 11.9C24.5975 12.0556 24.5003 12.2695 24.5003 12.5417C24.5003 12.8139 24.5975 13.0473 24.7919 13.2417C24.9864 13.4361 25.2003 13.5334 25.4336 13.5334C26.4447 13.6111 27.203 13.9223 27.7086 14.4667C28.2141 15.0111 28.4669 15.6334 28.4669 16.3334C28.4669 16.6445 28.5641 16.8778 28.7586 17.0334C28.953 17.1889 29.1669 17.2667 29.4003 17.2667C29.6336 17.2667 29.8475 17.1889 30.0419 17.0334C30.2364 16.8778 30.3336 16.6445 30.3336 16.3334C30.3336 15.2445 29.9836 14.2723 29.2836 13.4167C28.3503 12.3278 27.1058 11.7445 25.5503 11.6667H25.4336Z" fill="#031A0B"/>
</svg>
